<?xml version="1.0" encoding="utf-8"?>
<!-- Generator: Adobe Illustrator 19.0.0, SVG Export Plug-In . SVG Version: 6.00 Build 0)  -->
<svg version="1.1" id="overall" xmlns="http://www.w3.org/2000/svg" xmlns:xlink="http://www.w3.org/1999/xlink" x="0px" y="0px"
	 viewBox="0 0 841.9 595.3" style="enable-background:new 0 0 841.9 595.3;" xml:space="preserve">
<style type="text/css">
	.st0{fill:none;}
	.st1{fill:#2C973E;}
	.st2{fill:url(#SVGID_1_);}
	.st3{fill:url(#SVGID_2_);}
	.st4{fill:url(#SVGID_3_);}
	.st5{fill:#FFC20E;}
	.st6{fill:url(#SVGID_4_);}
	.st7{fill:url(#SVGID_5_);}
	.st8{fill:url(#SVGID_6_);}
	.st9{fill:url(#SVGID_7_);}
	.st10{fill:url(#SVGID_8_);}
	.st11{fill:url(#SVGID_9_);}
	.st12{fill:url(#SVGID_10_);}
	.st13{fill:url(#SVGID_11_);}
	.st14{fill:url(#SVGID_12_);}
	.st15{fill:url(#SVGID_13_);}
	.st16{fill:url(#SVGID_14_);}
	.st17{fill:url(#SVGID_15_);}
	.st18{fill:url(#SVGID_16_);}
	.st19{fill:url(#SVGID_17_);}
	.st20{fill:url(#SVGID_18_);}
	.st21{fill:url(#SVGID_19_);}
	.st22{fill:url(#SVGID_20_);}
	.st23{fill:url(#SVGID_21_);}
	.Foliage_GS{fill:#FFDD00;}
	.st24{fill:url(#XMLID_2_);}
	.st25{fill:#FFFFFF;stroke:#000000;stroke-miterlimit:10;}
</style>
<pattern  x="123.3" y="-123.3" width="446.6" height="259.2" patternUnits="userSpaceOnUse" id="Foliage" viewBox="146.6 -378.1 446.6 259.2" style="overflow:visible;">
	<g>
		<polygon class="st0" points="146.6,-378.1 593.2,-378.1 593.2,-118.9 146.6,-118.9 		"/>
		<g>
			<path class="st1" d="M525.4-187.4c5.5,4.6,10.7,12.5,11.4,22.8c1.1-10.2,3.2-18.1,8.2-24c0,0-6.3,3.1-8.6,9.2
				C533.5-184.7,525.4-187.4,525.4-187.4z"/>
			<path class="st1" d="M511.4-238.3c1.2,6,6.3,11.2,12.9,13.7c-2.7-7-1.7-13.8,2.2-19.8c-0.9,7.8,1.5,13.2,5.8,18
				c-1.4-4.8-1.2-9.3,1.1-13.9c-0.9,8.5,6.2,12.8,15.6,18.4c12.7,7.6,17.3,16,19.2,27.2c-3.5-6.9-9.9-13.1-27.9-17.3
				C518-216.9,510-224.2,511.4-238.3z"/>
			
				<linearGradient id="SVGID_1_" gradientUnits="userSpaceOnUse" x1="-38745.8867" y1="-53277.1367" x2="-38769.1836" y2="-53269.1992" gradientTransform="matrix(1 0 0 -1 39260.5586 -53426.4453)">
				<stop  offset="0.2331" style="stop-color:#FAA61A"/>
				<stop  offset="0.7607" style="stop-color:#FFC20E"/>
			</linearGradient>
			<path class="st2" d="M511.7-146c-4.7-4.6-6.9-12.2-7.3-21.7c-0.5-12.5-5.4-17.7-13.3-18.5c11.8,4.6,4.4,17.1,7.9,25.8
				c-6.4-4.8-4.4-20.7-17.6-21.4c9.8,3.2,2.8,16.7,9.3,24.5c-7.8-0.1-11.4,6.1-21.5,3.2c4.7,3.6,10,5.9,18.8,5.9
				c-6.3,3.9-9,8.6-11.3,15.3C486.8-143.4,501.5-147.5,511.7-146z"/>
			
				<radialGradient id="SVGID_2_" cx="-38667.3633" cy="-53307.5664" r="133.4365" gradientTransform="matrix(1 0 0 -1 39260.5586 -53426.4453)" gradientUnits="userSpaceOnUse">
				<stop  offset="0.3479" style="stop-color:#58AB40"/>
				<stop  offset="0.7607" style="stop-color:#80C342"/>
			</radialGradient>
			<path class="st3" d="M629-111.6c29.4,4,46.2,20.8,49.1,36.6c-3.9-9.3-13-15.2-23.6-18.6c10.6,14,7.2,31.9,21.1,41.7
				c-10.4-11-7.2-24.5-14.9-36.7c12.3,6.9,14.1,16.7,17,27.1c4.4,15.8,11.5,20.1,17.2,22.2c-11.7,0.5-28.7-4.5-36.8-20.1
				c-8.6-16.5-1.4-34.4-22.5-43.8c9.6,8.1,14.7,19.5,8.7,34.4c2.3-21.9-20.6-25.5-24.3-40.5c-0.6,11.5,7.2,21.2,14.5,25.9
				c-10.3-3.4-19.2-9-23.4-21.8c-6.9,21.4,5.3,38.5,12.9,38.5c2.6,0,4.5-1.7,4.5-4.2c0-6.4-11.6-6.4-14.6-18.9
				c5.3,10.8,25.5,8.9,25.5,20.8c0,9.7-13.6,14-22.4,8c6.4,8.3,21.3,8.6,25.6-1.4c0.7,4.3-1.3,10.8-7.5,13.1
				c-7,2.7-13.5-2.5-13.5-2.5c7.6,11,20.9,3.7,34.1,3.9c10.9,0.2,18.1,5.8,21.3,11.2c-3-1.5-4.6-1.9-7.6-2c6.3,3.9,10.8,12.8,9,21.5
				c-1.3-6.2-8.6-10.7-22.4-11.6c-15.6-1.1-23.8-3.6-29.1-9.3c11.2,5,28.9-1.9,41,6c-7.5-8.5-23.9-6.1-35.7-8
				c-20.7-3.3-33.3-38.3-31.7-53.6c-5.7,23.4,9.5,36.2,12.8,49.1c3.6,14.1-3.4,23.8-9.9,28.8c10.3-15.4-7.4-24.6-4.6-44.4
				c-5.2,19.2,4.4,24.7,4.4,34.6c0,9.8-8.6,13-10.3,25.5c-1.7-12.6-10.3-15.8-10.3-25.5c0-9.9,9.7-15.4,4.4-34.6
				c2.8,19.7-14.9,29-4.6,44.4c-6.6-5-13.6-14.7-9.9-28.8c3.3-12.9,18.4-25.7,12.8-49.1c1.6,15.3-11,50.3-31.7,53.6
				c-11.8,1.9-28.3-0.6-35.7,8c12-7.9,29.8-1.1,41-6c-5.3,5.7-13.5,8.2-29.1,9.3c-13.8,1-21.1,5.4-22.4,11.6
				c-1.8-8.7,2.8-17.6,9-21.5c-3,0.1-4.7,0.5-7.6,2c3.2-5.4,10.4-11,21.3-11.2c13.1-0.2,26.4,7.1,34.1-3.9c0,0-6.5,5.2-13.5,2.5
				c-6.1-2.4-8.1-8.8-7.5-13.1c4.3,10,19.2,9.8,25.5,1.4c-8.7,6.1-22.4,1.8-22.4-8c0-11.9,20.2-9.9,25.6-20.8
				c-3,12.4-14.6,12.4-14.6,18.9c0,2.5,1.9,4.2,4.5,4.2c7.6,0,19.8-17.1,12.9-38.5c-4.2,12.8-13.1,18.5-23.4,21.8
				c7.4-4.7,15.2-14.4,14.5-25.9c-3.7,14.9-26.6,18.5-24.3,40.5c-6-14.9-0.9-26.4,8.7-34.4c-21,9.4-13.9,27.3-22.5,43.8
				c-8.1,15.6-25.1,20.6-36.8,20.1c5.7-2.1,12.8-6.3,17.2-22.2c2.9-10.5,4.8-20.3,17-27.1c-7.7,12.3-4.5,25.7-14.9,36.7
				c13.9-9.8,10.5-27.7,21.1-41.7c-10.6,3.4-19.7,9.4-23.6,18.6c2.9-15.8,19.7-32.5,49.1-36.6c-30.3-1.3-36.2,15.6-51.5,16.2
				c-9.7,0.4-18.1-8.4-28-13.7C490-106,509-97.8,519-111.2c0,0-6.2,5.3-18.3,3.7c-12.3-1.6-23.5-9.4-54.1-11.4
				c30.7-2,41.8-9.8,54.1-11.4c12.1-1.5,18.3,3.7,18.3,3.7c-10.1-13.5-29.1-5.2-41.2-2.1c9.9-5.3,18.4-14.1,28-13.7
				c15.3,0.6,21.1,17.5,51.5,16.2c-29.4-4-46.2-20.8-49.1-36.5c3.9,9.2,13,15.2,23.6,18.6c-10.6-14-7.2-31.9-21.1-41.7
				c10.4,11,7.2,24.5,14.9,36.7c-12.3-6.9-14.1-16.7-17-27.1c-4.4-15.8-11.5-20.1-17.2-22.2c11.7-0.4,28.7,4.5,36.8,20.1
				c8.6,16.5,1.4,34.4,22.5,43.8c-9.6-8.1-14.7-19.5-8.7-34.4c-2.3,21.9,20.6,25.5,24.3,40.5c0.6-11.5-7.2-21.2-14.5-25.9
				c10.3,3.4,19.2,9,23.4,21.8c6.9-21.4-5.3-38.5-12.9-38.5c-2.6,0-4.5,1.7-4.5,4.2c0,6.5,11.6,6.5,14.6,18.9
				c-5.3-10.8-25.6-8.9-25.6-20.8c0-9.7,13.6-14,22.4-8c-6.4-8.3-21.3-8.6-25.5,1.4c-0.7-4.3,1.3-10.8,7.5-13.1
				c7-2.7,13.5,2.5,13.5,2.5c-7.6-11-20.9-3.7-34.1-3.9c-10.9-0.2-18.1-5.8-21.3-11.2c3,1.5,4.6,1.9,7.6,2
				c-6.3-3.9-10.8-12.8-9-21.5c1.3,6.2,8.6,10.7,22.4,11.6c15.6,1.1,23.8,3.6,29.1,9.3c-11.2-5-28.9,1.9-41-6
				c7.5,8.5,23.9,6.1,35.7,8c20.7,3.3,33.3,38.3,31.7,53.6c5.7-23.4-9.5-36.2-12.8-49.1c-3.6-14.1,3.4-23.8,9.9-28.8
				c-10.3,15.4,7.4,24.6,4.6,44.4c5.2-19.2-4.4-24.7-4.4-34.6c0-9.8,8.6-13,10.3-25.5c1.7,12.6,10.3,15.8,10.3,25.5
				c0,9.9-9.7,15.4-4.4,34.6c-2.8-19.7,14.9-29,4.6-44.4c6.6,5,13.6,14.7,9.9,28.8c-3.3,12.9-18.4,25.7-12.8,49.1
				c-1.6-15.3,11-50.3,31.7-53.6c11.8-1.9,28.3,0.6,35.7-8c-12.1,7.9-29.8,1.1-41,6c5.3-5.7,13.5-8.2,29.1-9.3
				c13.8-1,21.1-5.4,22.4-11.6c1.8,8.7-2.8,17.6-9,21.5c3-0.1,4.7-0.5,7.6-2c-3.2,5.4-10.4,11-21.3,11.2
				c-13.1,0.2-26.4-7.1-34.1,3.9c0,0,6.5-5.2,13.5-2.5c6.1,2.4,8.1,8.8,7.5,13.1c-4.3-10-19.2-9.8-25.6-1.4c8.7-6.1,22.4-1.8,22.4,8
				c0,11.9-20.2,9.9-25.5,20.8c3-12.4,14.6-12.4,14.6-18.9c0-2.5-1.9-4.2-4.5-4.2c-7.6,0-19.8,17.1-12.9,38.5
				c4.2-12.8,13.1-18.5,23.4-21.8c-7.4,4.7-15.2,14.4-14.5,25.9c3.7-14.9,26.6-18.5,24.3-40.5c6,14.9,0.9,26.4-8.7,34.4
				c21-9.4,13.9-27.3,22.5-43.8c8.1-15.6,25.1-20.6,36.8-20.1c-5.7,2.1-12.8,6.3-17.2,22.2c-2.9,10.5-4.8,20.3-17,27.1
				c7.7-12.3,4.5-25.7,14.9-36.7c-13.9,9.8-10.5,27.7-21.1,41.7c10.6-3.4,19.7-9.4,23.6-18.6c-2.9,15.8-19.7,32.5-49.1,36.5
				c30.3,1.3,36.2-15.6,51.5-16.2c9.7-0.4,18.1,8.4,28,13.7c-12.1-3.1-31.1-11.3-41.2,2.1c0,0,6.2-5.3,18.3-3.7
				c12.3,1.6,23.5,9.4,54.1,11.4c-30.7,2-41.8,9.8-54.1,11.4c-12.1,1.5-18.3-3.7-18.3-3.7c10.1,13.5,29.1,5.2,41.2,2.1
				c-9.9,5.3-18.4,14.1-28,13.7C665.2-96,659.4-112.9,629-111.6z M662.4-118.9c4.6,1.2,8.6,3.8,14.5,3.8c7.1,0,11.1-2.8,16.7-3.8
				c-5.7-1-9.6-3.8-16.7-3.8C671-122.6,667-120.1,662.4-118.9z M590.2-209.2c0,5.1,3,8.4,3,12.1c0-3.7,3-7,3-12.1
				c0-4.6-2.2-6.7-3-11.4C592.4-215.8,590.2-213.8,590.2-209.2z M524-118.9c-4.6-1.2-8.6-3.8-14.5-3.8c-7.1,0-11.1,2.8-16.7,3.8
				c5.7,1,9.6,3.8,16.7,3.8C515.4-115.1,519.4-117.6,524-118.9z M596.2-28.6c0-5.1-3-8.4-3-12.1c0,3.7-3,7-3,12.1
				c0,4.6,2.2,6.7,3,11.4C594-21.9,596.2-24,596.2-28.6z M638.3-118.9c-9.9,0-24.1-5-35-3c3.4-2.1,5-3.7,7.5-6.7
				c-4.4,0.4-6.8,0.8-10.1,2.3c2.7-6,3.2-9.4,3.7-15.4c-3.1,3.6-4.6,5.7-6.6,10.6c0.7-12.4-4.3-15.2-4.6-31.8
				c-0.4,16.5-5.3,19.3-4.6,31.8c-1.9-4.9-3.5-7.1-6.6-10.6c0.5,6,1.1,9.4,3.7,15.4c-3.4-1.5-5.7-1.9-10.1-2.3
				c2.5,3.1,4,4.6,7.5,6.7c-10.9-2-25,3-35,3c9.9,0,24.1,5,35,3c-3.4,2.1-5,3.7-7.5,6.7c4.4-0.4,6.8-0.8,10.1-2.3
				c-2.7,6-3.2,9.4-3.7,15.4c3.1-3.6,4.6-5.7,6.6-10.6c-0.7,12.4,4.3,15.2,4.6,31.8c0.4-16.5,5.3-19.3,4.6-31.8
				c1.9,4.9,3.5,7.1,6.6,10.6c-0.5-6-1.1-9.4-3.7-15.4c3.4,1.5,5.7,1.9,10.1,2.3c-2.5-3.1-4-4.6-7.5-6.7
				C614.2-113.9,628.3-118.9,638.3-118.9z"/>
			
				<linearGradient id="SVGID_3_" gradientUnits="userSpaceOnUse" x1="55120.75" y1="-53221.3164" x2="55120.75" y2="-53193.207" gradientTransform="matrix(-1 0 0 -1 55684.9844 -53426.4453)">
				<stop  offset="0.2331" style="stop-color:#FAA61A"/>
				<stop  offset="0.7607" style="stop-color:#FFC20E"/>
			</linearGradient>
			<path class="st4" d="M538.3-240.1c2.6,13.8,25.4,16.3,30.3,34.1c3.8-19.1,21.3-19.9,21.5-33.1c-3.2,7.8-10.8,5.8-15.9,12.1
				c0.8-6.2,4.6-11.9,12.4-15.1c-7.7-1.1-15.6,1.8-19.1,9.6c-2.6-4.2-2.8-8.4-0.7-13.9c-4.7,3.6-7.5,9.3-5.7,16.6
				C553.9-237.2,543.3-233.1,538.3-240.1z"/>
			<path class="st5" d="M611.4-118.9c-4.3-0.7-9.4-3.2-14.1-1.2c2.3-1.8,1.1-3.5,2.5-5.2c-1.9,1.4-3.5,0.5-5,2.7
				c1.5-5.3-0.5-8.1-1.6-14.1c-1.1,6-3.2,8.8-1.6,14.1c-1.5-2.2-3.1-1.4-5-2.7c1.4,1.7,0.2,3.4,2.5,5.2c-4.7-2-9.9,0.6-14.1,1.2
				c4.3,0.7,9.4,3.2,14.1,1.2c-2.3,1.8-1.1,3.5-2.5,5.2c1.9-1.4,3.5-0.5,5-2.7c-1.5,5.3,0.5,8.1,1.6,14.1c1.1-6,3.2-8.8,1.6-14.1
				c1.5,2.2,3.1,1.4,5,2.7c-1.4-1.7-0.2-3.4-2.5-5.2C602-115.7,607.2-118.2,611.4-118.9z"/>
		</g>
		<g>
			
				<linearGradient id="SVGID_4_" gradientUnits="userSpaceOnUse" x1="55459.9023" y1="-53277.1367" x2="55436.6016" y2="-53269.1992" gradientTransform="matrix(-1 0 0 -1 55684.9844 -53426.4453)">
				<stop  offset="0.2331" style="stop-color:#FAA61A"/>
				<stop  offset="0.7607" style="stop-color:#FFC20E"/>
			</linearGradient>
			<path class="st6" d="M228.1-146c4.7-4.6,6.9-12.2,7.3-21.7c0.5-12.5,5.4-17.7,13.3-18.5c-11.8,4.6-4.4,17.1-7.9,25.8
				c6.4-4.8,4.4-20.7,17.6-21.4c-9.8,3.2-2.8,16.7-9.3,24.5c7.8-0.1,11.4,6.1,21.5,3.2c-4.7,3.6-10,5.9-18.8,5.9
				c6.3,3.9,9,8.6,11.3,15.3C253-143.4,238.2-147.5,228.1-146z"/>
			<path class="st1" d="M214.4-187.4c-5.5,4.6-10.7,12.5-11.4,22.8c-1.1-10.2-3.2-18.1-8.2-24c0,0,6.3,3.1,8.6,9.2
				C206.3-184.7,214.4-187.4,214.4-187.4z"/>
			<path class="st1" d="M228.4-238.3c-1.2,6-6.3,11.2-12.9,13.7c2.7-7,1.7-13.8-2.2-19.8c0.9,7.8-1.5,13.2-5.8,18
				c1.4-4.8,1.2-9.3-1.1-13.9c0.9,8.5-6.2,12.8-15.6,18.4c-12.7,7.6-17.3,16-19.2,27.2c3.5-6.9,9.9-13.1,27.9-17.3
				C221.7-216.9,229.8-224.2,228.4-238.3z"/>
			
				<linearGradient id="SVGID_5_" gradientUnits="userSpaceOnUse" x1="-39085.0352" y1="-53221.3164" x2="-39085.0352" y2="-53193.207" gradientTransform="matrix(1 0 0 -1 39260.5586 -53426.4453)">
				<stop  offset="0.2331" style="stop-color:#FAA61A"/>
				<stop  offset="0.7607" style="stop-color:#FFC20E"/>
			</linearGradient>
			<path class="st7" d="M201.4-240.1c-2.6,13.8-25.4,16.3-30.3,34.1c-3.8-19.1-21.3-19.9-21.5-33.1c3.2,7.8,10.8,5.8,15.9,12.1
				c-0.8-6.2-4.6-11.9-12.4-15.1c7.7-1.1,15.6,1.8,19.1,9.6c2.6-4.2,2.8-8.4,0.7-13.9c4.7,3.6,7.5,9.3,5.7,16.6
				C185.8-237.2,196.5-233.1,201.4-240.1z"/>
			
				<radialGradient id="SVGID_6_" cx="-39114.0039" cy="-53307.5664" r="133.4365" gradientTransform="matrix(1 0 0 -1 39260.5586 -53426.4453)" gradientUnits="userSpaceOnUse">
				<stop  offset="0.3479" style="stop-color:#58AB40"/>
				<stop  offset="0.7607" style="stop-color:#80C342"/>
			</radialGradient>
			<path class="st8" d="M182.4-111.6c29.4,4,46.2,20.8,49.1,36.6c-3.9-9.3-13-15.2-23.6-18.6c10.6,14,7.2,31.9,21.1,41.7
				c-10.4-11-7.2-24.5-14.9-36.7c12.3,6.9,14.1,16.7,17,27.1c4.4,15.8,11.5,20.1,17.2,22.2c-11.7,0.5-28.7-4.5-36.8-20.1
				c-8.6-16.5-1.4-34.4-22.5-43.8c9.6,8.1,14.7,19.5,8.7,34.4c2.3-21.9-20.6-25.5-24.3-40.5c-0.6,11.5,7.2,21.2,14.5,25.9
				c-10.3-3.4-19.2-9-23.4-21.8c-6.9,21.4,5.3,38.5,12.9,38.5c2.6,0,4.5-1.7,4.5-4.2c0-6.4-11.6-6.4-14.6-18.9
				C172.8-79,193-80.9,193-69c0,9.7-13.6,14-22.4,8c6.4,8.3,21.3,8.6,25.6-1.4c0.7,4.3-1.3,10.8-7.5,13.1c-7,2.7-13.5-2.5-13.5-2.5
				c7.6,11,20.9,3.7,34.1,3.9c10.9,0.2,18.1,5.8,21.3,11.2c-3-1.5-4.6-1.9-7.6-2c6.3,3.9,10.8,12.8,9,21.5
				c-1.3-6.2-8.6-10.7-22.4-11.6c-15.6-1.1-23.8-3.6-29.1-9.3c11.2,5,28.9-1.9,41,6c-7.5-8.5-23.9-6.1-35.7-8
				c-20.7-3.3-33.3-38.3-31.7-53.6c-5.7,23.4,9.5,36.2,12.8,49.1c3.6,14.1-3.4,23.8-9.9,28.8c10.3-15.4-7.4-24.6-4.6-44.4
				c-5.2,19.2,4.4,24.7,4.4,34.6c0,9.8-8.6,13-10.3,25.5c-1.7-12.6-10.3-15.8-10.3-25.5c0-9.9,9.7-15.4,4.4-34.6
				c2.8,19.7-14.9,29-4.6,44.4c-6.6-5-13.6-14.7-9.9-28.8c3.3-12.9,18.4-25.7,12.8-49.1c1.6,15.3-11,50.3-31.7,53.6
				c-11.8,1.9-28.3-0.6-35.7,8c12-7.9,29.8-1.1,41-6c-5.3,5.7-13.5,8.2-29.1,9.3c-13.8,1-21.1,5.4-22.4,11.6
				c-1.8-8.7,2.8-17.6,9-21.5c-3,0.1-4.7,0.5-7.6,2c3.2-5.4,10.4-11,21.3-11.2c13.1-0.2,26.4,7.1,34.1-3.9c0,0-6.5,5.2-13.5,2.5
				c-6.1-2.4-8.1-8.8-7.5-13.1c4.3,10,19.2,9.8,25.5,1.4c-8.7,6.1-22.4,1.8-22.4-8c0-11.9,20.2-9.9,25.6-20.8
				c-3,12.4-14.6,12.4-14.6,18.9c0,2.5,1.9,4.2,4.5,4.2c7.6,0,19.8-17.1,12.9-38.5c-4.2,12.8-13.1,18.5-23.4,21.8
				c7.4-4.7,15.2-14.4,14.5-25.9C115.9-94.3,93-90.8,95.3-68.8c-6-14.9-0.9-26.4,8.7-34.4c-21,9.4-13.9,27.3-22.5,43.8
				c-8.1,15.6-25.1,20.6-36.8,20.1c5.7-2.1,12.8-6.3,17.2-22.2c2.9-10.5,4.8-20.3,17-27.1C71.3-76.4,74.4-63,64.1-52
				C78-61.8,74.6-79.7,85.2-93.7c-10.6,3.4-19.7,9.4-23.6,18.6c2.9-15.8,19.7-32.5,49.1-36.6C80.4-112.9,74.5-96,59.3-95.4
				c-9.7,0.4-18.1-8.4-28-13.7c12.1,3.1,31.1,11.3,41.2-2.1c0,0-6.2,5.3-18.3,3.7c-12.3-1.6-23.5-9.4-54.1-11.4
				c30.7-2,41.8-9.8,54.1-11.4c12.1-1.5,18.3,3.7,18.3,3.7c-10.1-13.5-29.1-5.2-41.2-2.1c9.9-5.3,18.4-14.1,28-13.7
				c15.3,0.6,21.1,17.5,51.5,16.2c-29.4-4-46.2-20.8-49.1-36.5c3.9,9.2,13,15.2,23.6,18.6c-10.6-14-7.2-31.9-21.1-41.7
				c10.4,11,7.2,24.5,14.9,36.7c-12.3-6.9-14.1-16.7-17-27.1c-4.4-15.8-11.5-20.1-17.2-22.2c11.7-0.4,28.7,4.5,36.8,20.1
				c8.6,16.5,1.4,34.4,22.5,43.8c-9.6-8.1-14.7-19.5-8.7-34.4c-2.3,21.9,20.6,25.5,24.3,40.5c0.6-11.5-7.2-21.2-14.5-25.9
				c10.3,3.4,19.2,9,23.4,21.8c6.9-21.4-5.3-38.5-12.9-38.5c-2.6,0-4.5,1.7-4.5,4.2c0,6.5,11.6,6.5,14.6,18.9
				c-5.3-10.8-25.6-8.9-25.6-20.8c0-9.7,13.6-14,22.4-8c-6.4-8.3-21.3-8.6-25.5,1.4c-0.7-4.3,1.3-10.8,7.5-13.1
				c7-2.7,13.5,2.5,13.5,2.5c-7.6-11-20.9-3.7-34.1-3.9c-10.9-0.2-18.1-5.8-21.3-11.2c3,1.5,4.6,1.9,7.6,2
				c-6.3-3.9-10.8-12.8-9-21.5c1.3,6.2,8.6,10.7,22.4,11.6c15.6,1.1,23.8,3.6,29.1,9.3c-11.2-5-28.9,1.9-41-6
				c7.5,8.5,23.9,6.1,35.7,8c20.7,3.3,33.3,38.3,31.7,53.6c5.7-23.4-9.5-36.2-12.8-49.1c-3.6-14.1,3.4-23.8,9.9-28.8
				c-10.3,15.4,7.4,24.6,4.6,44.4c5.2-19.2-4.4-24.7-4.4-34.6c0-9.8,8.6-13,10.3-25.5c1.7,12.6,10.3,15.8,10.3,25.5
				c0,9.9-9.7,15.4-4.4,34.6c-2.8-19.7,14.9-29,4.6-44.4c6.6,5,13.6,14.7,9.9,28.8c-3.3,12.9-18.4,25.7-12.8,49.1
				c-1.6-15.3,11-50.3,31.7-53.6c11.8-1.9,28.3,0.6,35.7-8c-12.1,7.9-29.8,1.1-41,6c5.3-5.7,13.5-8.2,29.1-9.3
				c13.8-1,21.1-5.4,22.4-11.6c1.8,8.7-2.8,17.6-9,21.5c3-0.1,4.7-0.5,7.6-2c-3.2,5.4-10.4,11-21.3,11.2
				c-13.1,0.2-26.4-7.1-34.1,3.9c0,0,6.5-5.2,13.5-2.5c6.1,2.4,8.1,8.8,7.5,13.1c-4.3-10-19.2-9.8-25.6-1.4c8.7-6.1,22.4-1.8,22.4,8
				c0,11.9-20.2,9.9-25.5,20.8c3-12.4,14.6-12.4,14.6-18.9c0-2.5-1.9-4.2-4.5-4.2c-7.6,0-19.8,17.1-12.9,38.5
				c4.2-12.8,13.1-18.5,23.4-21.8c-7.4,4.7-15.2,14.4-14.5,25.9c3.7-14.9,26.6-18.5,24.3-40.5c6,14.9,0.9,26.4-8.7,34.4
				c21-9.4,13.9-27.3,22.5-43.8c8.1-15.6,25.1-20.6,36.8-20.1c-5.7,2.1-12.8,6.3-17.2,22.2c-2.9,10.5-4.8,20.3-17,27.1
				c7.7-12.3,4.5-25.7,14.9-36.7c-13.9,9.8-10.5,27.7-21.1,41.7c10.6-3.4,19.7-9.4,23.6-18.6c-2.9,15.8-19.7,32.5-49.1,36.5
				c30.3,1.3,36.2-15.6,51.5-16.2c9.7-0.4,18.1,8.4,28,13.7c-12.1-3.1-31.1-11.3-41.2,2.1c0,0,6.2-5.3,18.3-3.7
				c12.3,1.6,23.5,9.4,54.1,11.4c-30.7,2-41.8,9.8-54.1,11.4c-12.1,1.5-18.3-3.7-18.3-3.7c10.1,13.5,29.1,5.2,41.2,2.1
				c-9.9,5.3-18.4,14.1-28,13.7C218.6-96,212.7-112.9,182.4-111.6z M215.8-118.9c4.6,1.2,8.6,3.8,14.5,3.8c7.1,0,11.1-2.8,16.7-3.8
				c-5.7-1-9.6-3.8-16.7-3.8C224.4-122.6,220.4-120.1,215.8-118.9z M143.5-209.2c0,5.1,3,8.4,3,12.1c0-3.7,3-7,3-12.1
				c0-4.6-2.2-6.7-3-11.4C145.8-215.8,143.5-213.8,143.5-209.2z M77.4-118.9c-4.6-1.2-8.6-3.8-14.5-3.8c-7.1,0-11.1,2.8-16.7,3.8
				c5.7,1,9.6,3.8,16.7,3.8C68.7-115.1,72.7-117.6,77.4-118.9z M149.6-28.6c0-5.1-3-8.4-3-12.1c0,3.7-3,7-3,12.1
				c0,4.6,2.2,6.7,3,11.4C147.3-21.9,149.6-24,149.6-28.6z M191.6-118.9c-9.9,0-24.1-5-35-3c3.4-2.1,5-3.7,7.5-6.7
				c-4.4,0.4-6.8,0.8-10.1,2.3c2.7-6,3.2-9.4,3.7-15.4c-3.1,3.6-4.6,5.7-6.6,10.6c0.7-12.4-4.3-15.2-4.6-31.8
				c-0.4,16.5-5.3,19.3-4.6,31.8c-1.9-4.9-3.5-7.1-6.6-10.6c0.5,6,1.1,9.4,3.7,15.4c-3.4-1.5-5.7-1.9-10.1-2.3
				c2.5,3.1,4,4.6,7.5,6.7c-10.9-2-25,3-35,3c9.9,0,24.1,5,35,3c-3.4,2.1-5,3.7-7.5,6.7c4.4-0.4,6.8-0.8,10.1-2.3
				c-2.7,6-3.2,9.4-3.7,15.4c3.1-3.6,4.6-5.7,6.6-10.6c-0.7,12.4,4.3,15.2,4.6,31.8c0.4-16.5,5.3-19.3,4.6-31.8
				c1.9,4.9,3.5,7.1,6.6,10.6c-0.5-6-1.1-9.4-3.7-15.4c3.4,1.5,5.7,1.9,10.1,2.3c-2.5-3.1-4-4.6-7.5-6.7
				C167.5-113.9,181.7-118.9,191.6-118.9z"/>
			<path class="st5" d="M164.8-118.9c-4.3-0.7-9.4-3.2-14.1-1.2c2.3-1.8,1.1-3.5,2.5-5.2c-1.9,1.4-3.5,0.5-5,2.7
				c1.5-5.3-0.5-8.1-1.6-14.1c-1.1,6-3.2,8.8-1.6,14.1c-1.5-2.2-3.1-1.4-5-2.7c1.4,1.7,0.2,3.4,2.5,5.2c-4.7-2-9.9,0.6-14.1,1.2
				c4.3,0.7,9.4,3.2,14.1,1.2c-2.3,1.8-1.1,3.5-2.5,5.2c1.9-1.4,3.5-0.5,5-2.7c-1.5,5.3,0.5,8.1,1.6,14.1c1.1-6,3.2-8.8,1.6-14.1
				c1.5,2.2,3.1,1.4,5,2.7c-1.4-1.7-0.2-3.4-2.5-5.2C155.4-115.7,160.5-118.2,164.8-118.9z"/>
		</g>
		<g>
			
				<linearGradient id="SVGID_7_" gradientUnits="userSpaceOnUse" x1="55056.75" y1="36648.8789" x2="55056.75" y2="36676.9844" gradientTransform="matrix(-1 0 0 1 55620.9844 -36940.6875)">
				<stop  offset="0.2331" style="stop-color:#FAA61A"/>
				<stop  offset="0.7607" style="stop-color:#FFC20E"/>
			</linearGradient>
			<path class="st9" d="M538.3-256.8c2.6-13.8,25.4-16.3,30.3-34.1c3.8,19.1,21.3,19.9,21.5,33.1c-3.2-7.8-10.8-5.8-15.9-12.1
				c0.8,6.2,4.6,11.9,12.4,15.1c-7.7,1.1-15.6-1.8-19.1-9.6c-2.6,4.2-2.8,8.4-0.7,13.9c-4.7-3.6-7.5-9.3-5.7-16.6
				C553.9-259.8,543.3-263.8,538.3-256.8z"/>
			<path class="st1" d="M525.4-309.6c5.5-4.6,10.7-12.5,11.4-22.8c1.1,10.2,3.2,18.1,8.2,24c0,0-6.3-3.1-8.6-9.2
				C533.5-312.3,525.4-309.6,525.4-309.6z"/>
			<path class="st1" d="M511.4-258.7c1.2-6,6.3-11.2,12.9-13.7c-2.7,7-1.7,13.8,2.2,19.8c-0.9-7.8,1.5-13.2,5.8-18
				c-1.4,4.8-1.2,9.3,1.1,13.9c-0.9-8.5,6.2-12.8,15.6-18.4c12.7-7.6,17.3-16,19.2-27.2c-3.5,6.9-9.9,13.1-27.9,17.3
				C518-280,510-272.8,511.4-258.7z"/>
			
				<radialGradient id="SVGID_8_" cx="-38667.3633" cy="-53048.3828" r="133.4365" gradientTransform="matrix(1 0 0 -1 39260.5586 -53426.4453)" gradientUnits="userSpaceOnUse">
				<stop  offset="0.3479" style="stop-color:#58AB40"/>
				<stop  offset="0.7607" style="stop-color:#80C342"/>
			</radialGradient>
			<path class="st10" d="M629-370.8c29.4,4,46.2,20.8,49.1,36.6c-3.9-9.3-13-15.2-23.6-18.6c10.6,14,7.2,31.9,21.1,41.7
				c-10.4-11-7.2-24.5-14.9-36.7c12.3,6.9,14.1,16.7,17,27.1c4.4,15.8,11.5,20.1,17.2,22.2c-11.7,0.4-28.7-4.5-36.8-20.1
				c-8.6-16.5-1.4-34.4-22.5-43.8c9.6,8.1,14.7,19.5,8.7,34.4c2.3-21.9-20.6-25.5-24.3-40.5c-0.6,11.5,7.2,21.2,14.5,25.9
				c-10.3-3.4-19.2-9-23.4-21.8c-6.9,21.4,5.3,38.5,12.9,38.5c2.6,0,4.5-1.7,4.5-4.2c0-6.4-11.6-6.4-14.6-18.9
				c5.3,10.8,25.5,8.9,25.5,20.8c0,9.7-13.6,14-22.4,8c6.4,8.3,21.3,8.6,25.6-1.4c0.7,4.3-1.3,10.8-7.5,13.1
				c-7,2.7-13.5-2.5-13.5-2.5c7.6,11,20.9,3.7,34.1,3.9c10.9,0.2,18.1,5.8,21.3,11.2c-3-1.5-4.6-1.9-7.6-2c6.3,3.9,10.8,12.8,9,21.5
				c-1.3-6.2-8.6-10.7-22.4-11.6c-15.6-1.1-23.8-3.6-29.1-9.3c11.2,5,28.9-1.9,41,6c-7.5-8.5-23.9-6.1-35.7-8
				c-20.7-3.3-33.3-38.3-31.7-53.6c-5.7,23.4,9.5,36.2,12.8,49.1c3.6,14.1-3.4,23.8-9.9,28.8c10.3-15.4-7.4-24.6-4.6-44.4
				c-5.2,19.2,4.4,24.7,4.4,34.6c0,9.8-8.6,13-10.3,25.5c-1.7-12.6-10.3-15.8-10.3-25.5c0-9.9,9.7-15.4,4.4-34.6
				c2.8,19.7-14.9,29-4.6,44.4c-6.6-5-13.6-14.7-9.9-28.8c3.3-12.9,18.4-25.7,12.8-49.1c1.6,15.3-11,50.3-31.7,53.6
				c-11.8,1.9-28.3-0.6-35.7,8c12-7.9,29.8-1.1,41-6c-5.3,5.7-13.5,8.2-29.1,9.3c-13.8,1-21.1,5.4-22.4,11.6
				c-1.8-8.7,2.8-17.6,9-21.5c-3,0.1-4.7,0.5-7.6,2c3.2-5.4,10.4-11,21.3-11.2c13.1-0.2,26.4,7.1,34.1-3.9c0,0-6.5,5.2-13.5,2.5
				c-6.1-2.4-8.1-8.8-7.5-13.1c4.3,10,19.2,9.8,25.5,1.4c-8.7,6.1-22.4,1.8-22.4-8c0-11.9,20.2-9.9,25.6-20.8
				c-3,12.4-14.6,12.4-14.6,18.9c0,2.5,1.9,4.2,4.5,4.2c7.6,0,19.8-17.1,12.9-38.5c-4.2,12.8-13.1,18.5-23.4,21.8
				c7.4-4.7,15.2-14.4,14.5-25.9c-3.7,14.9-26.6,18.5-24.3,40.5c-6-14.9-0.9-26.4,8.7-34.4c-21,9.4-13.9,27.3-22.5,43.8
				c-8.1,15.6-25.1,20.6-36.8,20.1c5.7-2.1,12.8-6.3,17.2-22.2c2.9-10.5,4.8-20.3,17-27.1c-7.7,12.3-4.5,25.7-14.9,36.7
				c13.9-9.8,10.5-27.7,21.1-41.7c-10.6,3.4-19.7,9.4-23.6,18.6c2.9-15.8,19.7-32.5,49.1-36.6c-30.3-1.3-36.2,15.6-51.5,16.2
				c-9.7,0.4-18.1-8.4-28-13.7c12.1,3.1,31.1,11.3,41.2-2.1c0,0-6.2,5.3-18.3,3.7c-12.3-1.6-23.5-9.4-54.1-11.4
				c30.7-2,41.8-9.8,54.1-11.4c12.1-1.5,18.3,3.7,18.3,3.7c-10.1-13.5-29.1-5.2-41.2-2.1c9.9-5.3,18.4-14.1,28-13.7
				c15.3,0.6,21.1,17.5,51.5,16.2c-29.4-4-46.2-20.8-49.1-36.5c3.9,9.2,13,15.2,23.6,18.6c-10.6-14-7.2-31.9-21.1-41.7
				c10.4,11,7.2,24.5,14.9,36.7c-12.3-6.9-14.1-16.7-17-27.1c-4.4-15.8-11.5-20.1-17.2-22.2c11.7-0.4,28.7,4.5,36.8,20.1
				c8.6,16.5,1.4,34.4,22.5,43.8c-9.6-8.1-14.7-19.5-8.7-34.4c-2.3,21.9,20.6,25.5,24.3,40.5c0.6-11.5-7.2-21.2-14.5-25.9
				c10.3,3.4,19.2,9,23.4,21.8c6.9-21.4-5.3-38.5-12.9-38.5c-2.6,0-4.5,1.7-4.5,4.2c0,6.5,11.6,6.5,14.6,18.9
				c-5.3-10.8-25.6-8.9-25.6-20.8c0-9.7,13.6-14,22.4-8c-6.4-8.3-21.3-8.6-25.5,1.4c-0.7-4.3,1.3-10.8,7.5-13.1
				c7-2.7,13.5,2.5,13.5,2.5c-7.6-11-20.9-3.7-34.1-3.9c-10.9-0.2-18.1-5.8-21.3-11.2c3,1.5,4.6,1.9,7.6,2
				c-6.3-3.9-10.8-12.8-9-21.5c1.3,6.2,8.6,10.7,22.4,11.6c15.6,1.1,23.8,3.6,29.1,9.3c-11.2-5-28.9,1.9-41-6
				c7.5,8.5,23.9,6.1,35.7,8c20.7,3.3,33.3,38.3,31.7,53.6c5.7-23.4-9.5-36.2-12.8-49.1c-3.6-14.1,3.4-23.8,9.9-28.8
				c-10.3,15.4,7.4,24.6,4.6,44.4c5.2-19.2-4.4-24.7-4.4-34.6c0-9.8,8.6-13,10.3-25.5c1.7,12.6,10.3,15.8,10.3,25.5
				c0,9.9-9.7,15.4-4.4,34.6c-2.8-19.7,14.9-29,4.6-44.4c6.6,5,13.6,14.7,9.9,28.8c-3.3,12.9-18.4,25.7-12.8,49.1
				c-1.6-15.3,11-50.3,31.7-53.6c11.8-1.9,28.3,0.6,35.7-8c-12.1,7.9-29.8,1.1-41,6c5.3-5.7,13.5-8.2,29.1-9.3
				c13.8-1,21.1-5.4,22.4-11.6c1.8,8.7-2.8,17.6-9,21.5c3-0.1,4.7-0.5,7.6-2c-3.2,5.4-10.4,11-21.3,11.2
				c-13.1,0.2-26.4-7.1-34.1,3.9c0,0,6.5-5.2,13.5-2.5c6.1,2.4,8.1,8.8,7.5,13.1c-4.3-10-19.2-9.8-25.6-1.4c8.7-6.1,22.4-1.8,22.4,8
				c0,11.9-20.2,9.9-25.5,20.8c3-12.4,14.6-12.4,14.6-18.9c0-2.5-1.9-4.2-4.5-4.2c-7.6,0-19.8,17.1-12.9,38.5
				c4.2-12.8,13.1-18.5,23.4-21.8c-7.4,4.7-15.2,14.4-14.5,25.9c3.7-14.9,26.6-18.5,24.3-40.5c6,14.9,0.9,26.4-8.7,34.4
				c21-9.4,13.9-27.3,22.5-43.8c8.1-15.6,25.1-20.6,36.8-20.1c-5.7,2.1-12.8,6.3-17.2,22.2c-2.9,10.5-4.8,20.2-17,27.1
				c7.7-12.3,4.5-25.7,14.9-36.7c-13.9,9.8-10.5,27.7-21.1,41.7c10.6-3.4,19.7-9.4,23.6-18.6c-2.9,15.8-19.7,32.5-49.1,36.5
				c30.3,1.3,36.2-15.6,51.5-16.2c9.7-0.4,18.1,8.4,28,13.7c-12.1-3.1-31.1-11.3-41.2,2.1c0,0,6.2-5.3,18.3-3.7
				c12.3,1.6,23.5,9.4,54.1,11.4c-30.7,2-41.8,9.8-54.1,11.4c-12.1,1.5-18.3-3.7-18.3-3.7c10.1,13.5,29.1,5.2,41.2,2.1
				c-9.9,5.3-18.4,14.1-28,13.7C665.2-355.2,659.4-372.1,629-370.8z M662.4-378.1c4.6,1.2,8.6,3.8,14.5,3.8c7.1,0,11.1-2.8,16.7-3.8
				c-5.7-1-9.6-3.8-16.7-3.8C671-381.8,667-379.3,662.4-378.1z M590.2-468.4c0,5.1,3,8.4,3,12.1c0-3.7,3-7,3-12.1
				c0-4.6-2.2-6.7-3-11.4C592.4-475,590.2-472.9,590.2-468.4z M524-378.1c-4.6-1.2-8.6-3.8-14.5-3.8c-7.1,0-11.1,2.8-16.7,3.8
				c5.7,1,9.6,3.8,16.7,3.8C515.4-374.3,519.4-376.8,524-378.1z M596.2-287.8c0-5.1-3-8.4-3-12.1c0,3.7-3,7-3,12.1
				c0,4.6,2.2,6.7,3,11.4C594-281.1,596.2-283.2,596.2-287.8z M638.3-378.1c-9.9,0-24.1-5-35-3c3.4-2.1,5-3.7,7.5-6.7
				c-4.4,0.4-6.8,0.8-10.1,2.3c2.7-6,3.2-9.4,3.7-15.4c-3.1,3.6-4.6,5.7-6.6,10.6c0.7-12.4-4.3-15.2-4.6-31.8
				c-0.4,16.5-5.3,19.3-4.6,31.8c-1.9-4.9-3.5-7.1-6.6-10.6c0.5,6,1.1,9.4,3.7,15.4c-3.4-1.5-5.7-1.9-10.1-2.3
				c2.5,3.1,4,4.6,7.5,6.7c-10.9-2-25,3-35,3c9.9,0,24.1,5,35,3c-3.4,2.1-5,3.7-7.5,6.7c4.4-0.4,6.8-0.8,10.1-2.3
				c-2.7,6-3.2,9.4-3.7,15.4c3.1-3.6,4.6-5.7,6.6-10.6c-0.7,12.4,4.3,15.2,4.6,31.8c0.4-16.5,5.3-19.3,4.6-31.8
				c1.9,4.9,3.5,7.1,6.6,10.6c-0.5-6-1.1-9.4-3.7-15.4c3.4,1.5,5.7,1.9,10.1,2.3c-2.5-3.1-4-4.6-7.5-6.7
				C614.2-373.1,628.3-378.1,638.3-378.1z"/>
			
				<linearGradient id="SVGID_9_" gradientUnits="userSpaceOnUse" x1="-38745.8867" y1="36607.5977" x2="-38769.1875" y2="36615.5352" gradientTransform="matrix(1 0 0 1 39260.5586 -36955.2266)">
				<stop  offset="0.2331" style="stop-color:#FAA61A"/>
				<stop  offset="0.7607" style="stop-color:#FFC20E"/>
			</linearGradient>
			<path class="st11" d="M511.7-350.9c-4.7,4.6-6.9,12.2-7.3,21.7c-0.5,12.5-5.4,17.7-13.3,18.5c11.8-4.6,4.4-17.1,7.9-25.8
				c-6.4,4.8-4.4,20.7-17.6,21.4c9.8-3.2,2.8-16.7,9.3-24.5c-7.8,0.1-11.4-6.1-21.5-3.2c4.7-3.6,10-5.9,18.8-5.9
				c-6.3-3.9-9-8.6-11.3-15.3C486.8-353.5,501.5-349.4,511.7-350.9z"/>
			<path class="st5" d="M611.4-378.1c-4.3-0.7-9.4-3.2-14.1-1.2c2.3-1.8,1.1-3.5,2.5-5.2c-1.9,1.4-3.5,0.5-5,2.7
				c1.5-5.3-0.5-8.1-1.6-14.1c-1.1,6-3.2,8.8-1.6,14.1c-1.5-2.2-3.1-1.4-5-2.7c1.4,1.7,0.2,3.4,2.5,5.2c-4.7-2-9.9,0.6-14.1,1.2
				c4.3,0.7,9.4,3.2,14.1,1.2c-2.3,1.8-1.1,3.5-2.5,5.2c1.9-1.4,3.5-0.5,5-2.7c-1.5,5.3,0.5,8.1,1.6,14.1c1.1-6,3.2-8.8,1.6-14.1
				c1.5,2.2,3.1,1.4,5,2.7c-1.4-1.7-0.2-3.4-2.5-5.2C602-374.9,607.2-377.4,611.4-378.1z"/>
		</g>
		<g>
			
				<linearGradient id="SVGID_10_" gradientUnits="userSpaceOnUse" x1="55280.0703" y1="36778.4688" x2="55280.0703" y2="36806.5781" gradientTransform="matrix(-1 0 0 1 55620.9844 -36940.6875)">
				<stop  offset="0.2331" style="stop-color:#FAA61A"/>
				<stop  offset="0.7607" style="stop-color:#FFC20E"/>
			</linearGradient>
			<path class="st12" d="M315-127.2c2.6-13.8,25.4-16.3,30.3-34.1c3.8,19.1,21.3,19.9,21.5,33.1c-3.2-7.8-10.8-5.8-15.9-12.1
				c0.8,6.2,4.6,11.9,12.4,15.1c-7.7,1.1-15.6-1.8-19.1-9.6c-2.6,4.2-2.8,8.4-0.7,13.9c-4.7-3.6-7.5-9.3-5.7-16.6
				C330.6-130.2,320-134.2,315-127.2z"/>
			
				<linearGradient id="SVGID_11_" gradientUnits="userSpaceOnUse" x1="-38797.7148" y1="36778.4688" x2="-38797.7148" y2="36806.5781" gradientTransform="matrix(1 0 0 1 39196.5586 -36940.6875)">
				<stop  offset="0.2331" style="stop-color:#FAA61A"/>
				<stop  offset="0.7607" style="stop-color:#FFC20E"/>
			</linearGradient>
			<path class="st13" d="M424.8-127.2c-2.6-13.8-25.4-16.3-30.3-34.1c-3.8,19.1-21.3,19.9-21.5,33.1c3.2-7.8,10.8-5.8,15.9-12.1
				c-0.8,6.2-4.6,11.9-12.4,15.1c7.7,1.1,15.6-1.8,19.1-9.6c2.6,4.2,2.8,8.4,0.7,13.9c4.7-3.6,7.5-9.3,5.7-16.6
				C409.1-130.2,419.8-134.2,424.8-127.2z"/>
			
				<linearGradient id="SVGID_12_" gradientUnits="userSpaceOnUse" x1="55236.582" y1="-53147.543" x2="55213.2812" y2="-53139.6055" gradientTransform="matrix(-1 0 0 -1 55684.9844 -53426.4453)">
				<stop  offset="0.2331" style="stop-color:#FAA61A"/>
				<stop  offset="0.7607" style="stop-color:#FFC20E"/>
			</linearGradient>
			<path class="st14" d="M451.4-275.6c4.7-4.6,6.9-12.2,7.3-21.7c0.5-12.5,5.4-17.7,13.3-18.5c-11.8,4.6-4.4,17.1-7.9,25.8
				c6.4-4.8,4.4-20.7,17.6-21.4c-9.8,3.2-2.8,16.7-9.3,24.5c7.8-0.1,11.4,6.1,21.5,3.2c-4.7,3.6-10,5.9-18.8,5.9
				c6.3,3.9,9,8.6,11.3,15.3C476.3-273,461.6-277.1,451.4-275.6z"/>
			<path class="st1" d="M302.1-317c5.5,4.6,10.7,12.5,11.4,22.8c1.1-10.2,3.2-18.1,8.2-24c0,0-6.3,3.1-8.6,9.2
				C310.2-314.3,302.1-317,302.1-317z"/>
			<path class="st1" d="M288.1-367.8c1.2,6,6.3,11.2,12.9,13.7c-2.7-7-1.7-13.8,2.2-19.8c-0.9,7.8,1.5,13.2,5.8,18
				c-1.4-4.8-1.2-9.3,1.1-13.9c-0.9,8.5,6.2,12.8,15.6,18.4c12.7,7.6,17.3,16,19.2,27.2c-3.5-6.9-9.9-13.1-27.9-17.3
				C294.7-346.5,286.6-353.8,288.1-367.8z"/>
			
				<linearGradient id="SVGID_13_" gradientUnits="userSpaceOnUse" x1="-38969.207" y1="-53147.543" x2="-38992.5039" y2="-53139.6055" gradientTransform="matrix(1 0 0 -1 39260.5586 -53426.4453)">
				<stop  offset="0.2331" style="stop-color:#FAA61A"/>
				<stop  offset="0.7607" style="stop-color:#FFC20E"/>
			</linearGradient>
			<path class="st15" d="M288.3-275.6c-4.7-4.6-6.9-12.2-7.3-21.7c-0.5-12.5-5.4-17.7-13.3-18.5c11.8,4.6,4.4,17.1,7.9,25.8
				c-6.4-4.8-4.4-20.7-17.6-21.4c9.8,3.2,2.8,16.7,9.3,24.5c-7.8-0.1-11.4,6.1-21.5,3.2c4.7,3.6,10,5.9,18.8,5.9
				c-6.3,3.9-9,8.6-11.3,15.3C263.5-273,278.2-277.1,288.3-275.6z"/>
			<path class="st1" d="M437.7-317c-5.5,4.6-10.7,12.5-11.4,22.8c-1.1-10.2-3.2-18.1-8.2-24c0,0,6.3,3.1,8.6,9.2
				C429.6-314.3,437.7-317,437.7-317z"/>
			<path class="st1" d="M451.7-367.8c-1.2,6-6.3,11.2-12.9,13.7c2.7-7,1.7-13.8-2.2-19.8c0.9,7.8-1.5,13.2-5.8,18
				c1.4-4.8,1.2-9.3-1.1-13.9c0.9,8.5-6.2,12.8-15.6,18.4c-12.7,7.6-17.3,16-19.2,27.2c3.5-6.9,9.9-13.1,27.9-17.3
				C445-346.5,453.1-353.8,451.7-367.8z"/>
			
				<linearGradient id="SVGID_14_" gradientUnits="userSpaceOnUse" x1="-38861.7148" y1="-53091.7227" x2="-38861.7148" y2="-53063.6172" gradientTransform="matrix(1 0 0 -1 39260.5586 -53426.4453)">
				<stop  offset="0.2331" style="stop-color:#FAA61A"/>
				<stop  offset="0.7607" style="stop-color:#FFC20E"/>
			</linearGradient>
			<path class="st16" d="M424.8-369.7c-2.6,13.8-25.4,16.3-30.3,34.1c-3.8-19.1-21.3-19.9-21.5-33.1c3.2,7.8,10.8,5.8,15.9,12.1
				c-0.8-6.2-4.6-11.9-12.4-15.1c7.7-1.1,15.6,1.8,19.1,9.6c2.6-4.2,2.8-8.4,0.7-13.9c4.7,3.6,7.5,9.3,5.7,16.6
				C409.1-366.8,419.8-362.7,424.8-369.7z"/>
			<path class="st1" d="M302.1-180c5.5-4.6,10.7-12.5,11.4-22.8c1.1,10.2,3.2,18.1,8.2,24c0,0-6.3-3.1-8.6-9.2
				C310.2-182.7,302.1-180,302.1-180z"/>
			<path class="st1" d="M288.1-129.1c1.2-6,6.3-11.2,12.9-13.7c-2.7,7-1.7,13.8,2.2,19.8c-0.9-7.8,1.5-13.2,5.8-18
				c-1.4,4.8-1.2,9.3,1.1,13.9c-0.9-8.5,6.2-12.8,15.6-18.4c12.7-7.6,17.3-16,19.2-27.2c-3.5,6.9-9.9,13.1-27.9,17.3
				C294.7-150.4,286.6-143.2,288.1-129.1z"/>
			
				<radialGradient id="SVGID_15_" cx="-38890.6836" cy="-53177.9766" r="133.4365" gradientTransform="matrix(1 0 0 -1 39260.5586 -53426.4453)" gradientUnits="userSpaceOnUse">
				<stop  offset="0.3479" style="stop-color:#58AB40"/>
				<stop  offset="0.7607" style="stop-color:#80C342"/>
			</radialGradient>
			<path class="st17" d="M405.7-241.2c29.4,4,46.2,20.8,49.1,36.6c-3.9-9.3-13-15.2-23.6-18.6c10.6,14,7.2,31.9,21.1,41.7
				c-10.4-11-7.2-24.5-14.9-36.7c12.3,6.9,14.1,16.7,17,27.1c4.4,15.8,11.5,20.1,17.2,22.2c-11.7,0.5-28.7-4.5-36.8-20.1
				c-8.6-16.5-1.4-34.4-22.5-43.8c9.6,8.1,14.7,19.5,8.7,34.4c2.3-21.9-20.6-25.5-24.3-40.5c-0.6,11.5,7.2,21.2,14.5,25.9
				c-10.3-3.4-19.2-9-23.4-21.8c-6.9,21.4,5.3,38.5,12.9,38.5c2.6,0,4.5-1.7,4.5-4.2c0-6.4-11.6-6.4-14.6-18.9
				c5.3,10.8,25.5,8.9,25.5,20.8c0,9.7-13.6,14-22.4,8c6.4,8.3,21.3,8.6,25.6-1.4c0.7,4.3-1.3,10.8-7.5,13.1
				c-7,2.7-13.5-2.5-13.5-2.5c7.6,11,20.9,3.7,34.1,3.9c10.9,0.2,18.1,5.8,21.3,11.2c-3-1.5-4.6-1.9-7.6-2c6.3,3.9,10.8,12.8,9,21.5
				c-1.3-6.2-8.6-10.7-22.4-11.6c-15.6-1.1-23.8-3.6-29.1-9.3c11.2,5,28.9-1.9,41,6c-7.5-8.5-23.9-6.1-35.7-8
				c-20.7-3.3-33.3-38.3-31.7-53.6c-5.7,23.4,9.5,36.2,12.8,49.1c3.6,14.1-3.4,23.8-9.9,28.8c10.3-15.4-7.4-24.6-4.6-44.4
				c-5.2,19.2,4.4,24.7,4.4,34.6c0,9.8-8.6,13-10.3,25.5c-1.7-12.6-10.3-15.8-10.3-25.5c0-9.9,9.7-15.4,4.4-34.6
				c2.8,19.7-14.9,29-4.6,44.4c-6.6-5-13.6-14.7-9.9-28.8c3.3-12.9,18.4-25.7,12.8-49.1c1.6,15.3-11,50.3-31.7,53.6
				c-11.8,1.9-28.3-0.6-35.7,8c12-7.9,29.8-1.1,41-6c-5.3,5.7-13.5,8.2-29.1,9.3c-13.8,1-21.1,5.4-22.4,11.6
				c-1.8-8.7,2.8-17.6,9-21.5c-3,0.1-4.7,0.5-7.6,2c3.2-5.4,10.4-11,21.3-11.2c13.1-0.2,26.4,7.1,34.1-3.9c0,0-6.5,5.2-13.5,2.5
				c-6.1-2.4-8.1-8.8-7.5-13.1c4.3,10,19.2,9.8,25.5,1.4c-8.7,6.1-22.4,1.8-22.4-8c0-11.9,20.2-9.9,25.6-20.8
				c-3,12.4-14.6,12.4-14.6,18.9c0,2.5,1.9,4.2,4.5,4.2c7.6,0,19.8-17.1,12.9-38.5c-4.2,12.8-13.1,18.5-23.4,21.8
				c7.4-4.7,15.2-14.4,14.5-25.9c-3.7,14.9-26.6,18.5-24.3,40.5c-6-14.9-0.9-26.4,8.7-34.4c-21,9.4-13.9,27.3-22.5,43.8
				c-8.1,15.6-25.1,20.6-36.8,20.1c5.7-2.1,12.8-6.3,17.2-22.2c2.9-10.5,4.8-20.3,17-27.1c-7.7,12.3-4.5,25.7-14.9,36.7
				c13.9-9.8,10.5-27.7,21.1-41.7c-10.6,3.4-19.7,9.4-23.6,18.6c2.9-15.8,19.7-32.5,49.1-36.6c-30.3-1.3-36.2,15.6-51.5,16.2
				c-9.7,0.4-18.1-8.4-28-13.7c12.1,3.1,31.1,11.3,41.2-2.1c0,0-6.2,5.3-18.3,3.7c-12.3-1.6-23.5-9.4-54.1-11.4
				c30.7-2,41.8-9.8,54.1-11.4c12.1-1.5,18.3,3.7,18.3,3.7c-10.1-13.5-29.1-5.2-41.2-2.1c9.9-5.3,18.4-14.1,28-13.7
				c15.3,0.6,21.1,17.5,51.5,16.2c-29.4-4-46.2-20.8-49.1-36.5c3.9,9.2,13,15.2,23.6,18.6c-10.6-14-7.2-31.9-21.1-41.7
				c10.4,11,7.2,24.5,14.9,36.7c-12.3-6.9-14.1-16.7-17-27.1c-4.4-15.8-11.5-20.1-17.2-22.2c11.7-0.4,28.7,4.5,36.8,20.1
				c8.6,16.5,1.4,34.4,22.5,43.8c-9.6-8.1-14.7-19.5-8.7-34.4c-2.3,21.9,20.6,25.5,24.3,40.5c0.6-11.5-7.2-21.2-14.5-25.9
				c10.3,3.4,19.2,9,23.4,21.8c6.9-21.4-5.3-38.5-12.9-38.5c-2.6,0-4.5,1.7-4.5,4.2c0,6.5,11.6,6.5,14.6,18.9
				c-5.3-10.8-25.6-8.9-25.6-20.8c0-9.7,13.6-14,22.4-8c-6.4-8.3-21.3-8.6-25.5,1.4c-0.7-4.3,1.3-10.8,7.5-13.1
				c7-2.7,13.5,2.5,13.5,2.5c-7.6-11-20.9-3.7-34.1-3.9c-10.9-0.2-18.1-5.8-21.3-11.2c3,1.5,4.6,1.9,7.6,2
				c-6.3-3.9-10.8-12.8-9-21.5c1.3,6.2,8.6,10.7,22.4,11.6c15.6,1.1,23.8,3.6,29.1,9.3c-11.2-5-28.9,1.9-41-6
				c7.5,8.5,23.9,6.1,35.7,8c20.7,3.3,33.3,38.3,31.7,53.6c5.7-23.4-9.5-36.2-12.8-49.1c-3.6-14.1,3.4-23.8,9.9-28.8
				c-10.3,15.4,7.4,24.6,4.6,44.4c5.2-19.2-4.4-24.7-4.4-34.6c0-9.8,8.6-13,10.3-25.5c1.7,12.6,10.3,15.8,10.3,25.5
				c0,9.9-9.7,15.4-4.4,34.6c-2.8-19.7,14.9-29,4.6-44.4c6.6,5,13.6,14.7,9.9,28.8c-3.3,12.9-18.4,25.7-12.8,49.1
				c-1.6-15.3,11-50.3,31.7-53.6c11.8-1.9,28.3,0.6,35.7-8c-12.1,7.9-29.8,1.1-41,6c5.3-5.7,13.5-8.2,29.1-9.3
				c13.8-1,21.1-5.4,22.4-11.6c1.8,8.7-2.8,17.6-9,21.5c3-0.1,4.7-0.5,7.6-2c-3.2,5.4-10.4,11-21.3,11.2
				c-13.1,0.2-26.4-7.1-34.1,3.9c0,0,6.5-5.2,13.5-2.5c6.1,2.4,8.1,8.8,7.5,13.1c-4.3-10-19.2-9.8-25.6-1.4c8.7-6.1,22.4-1.8,22.4,8
				c0,11.9-20.2,9.9-25.5,20.8c3-12.4,14.6-12.4,14.6-18.9c0-2.5-1.9-4.2-4.5-4.2c-7.6,0-19.8,17.1-12.9,38.5
				c4.2-12.8,13.1-18.5,23.4-21.8c-7.4,4.7-15.2,14.4-14.5,25.9c3.7-14.9,26.6-18.5,24.3-40.5c6,14.9,0.9,26.4-8.7,34.4
				c21-9.4,13.9-27.3,22.5-43.8c8.1-15.6,25.1-20.6,36.8-20.1c-5.7,2.1-12.8,6.3-17.2,22.2c-2.9,10.5-4.8,20.3-17,27.1
				c7.7-12.3,4.5-25.7,14.9-36.7c-13.9,9.8-10.5,27.7-21.1,41.7c10.6-3.4,19.7-9.4,23.6-18.6c-2.9,15.8-19.7,32.5-49.1,36.5
				c30.3,1.3,36.2-15.6,51.5-16.2c9.7-0.4,18.1,8.4,28,13.7c-12.1-3.1-31.1-11.3-41.2,2.1c0,0,6.2-5.3,18.3-3.7
				c12.3,1.6,23.5,9.4,54.1,11.4c-30.7,2-41.8,9.8-54.1,11.4c-12.1,1.5-18.3-3.7-18.3-3.7c10.1,13.5,29.1,5.2,41.2,2.1
				c-9.9,5.3-18.4,14.1-28,13.7C441.9-225.6,436-242.5,405.7-241.2z M439.1-248.5c4.6,1.2,8.6,3.8,14.5,3.8c7.1,0,11.1-2.8,16.7-3.8
				c-5.7-1-9.6-3.8-16.7-3.8C447.7-252.2,443.7-249.7,439.1-248.5z M366.9-338.8c0,5.1,3,8.4,3,12.1c0-3.7,3-7,3-12.1
				c0-4.6-2.2-6.7-3-11.4C369.1-345.4,366.9-343.3,366.9-338.8z M300.7-248.5c-4.6-1.2-8.6-3.8-14.5-3.8c-7.1,0-11.1,2.8-16.7,3.8
				c5.7,1,9.6,3.8,16.7,3.8C292-244.7,296.1-247.2,300.7-248.5z M372.9-158.2c0-5.1-3-8.4-3-12.1c0,3.7-3,7-3,12.1
				c0,4.6,2.2,6.7,3,11.4C370.6-151.5,372.9-153.6,372.9-158.2z M414.9-248.5c-9.9,0-24.1-5-35-3c3.4-2.1,5-3.7,7.5-6.7
				c-4.4,0.4-6.8,0.8-10.1,2.3c2.7-6,3.2-9.4,3.7-15.4c-3.1,3.6-4.6,5.7-6.6,10.6c0.7-12.4-4.3-15.2-4.6-31.8
				c-0.4,16.5-5.3,19.3-4.6,31.8c-1.9-4.9-3.5-7.1-6.6-10.6c0.5,6,1.1,9.4,3.7,15.4c-3.4-1.5-5.7-1.9-10.1-2.3
				c2.5,3.1,4,4.6,7.5,6.7c-10.9-2-25,3-35,3c9.9,0,24.1,5,35,3c-3.4,2.1-5,3.7-7.5,6.7c4.4-0.4,6.8-0.8,10.1-2.3
				c-2.7,6-3.2,9.4-3.7,15.4c3.1-3.6,4.6-5.7,6.6-10.6c-0.7,12.4,4.3,15.2,4.6,31.8c0.4-16.5,5.3-19.3,4.6-31.8
				c1.9,4.9,3.5,7.1,6.6,10.6c-0.5-6-1.1-9.4-3.7-15.4c3.4,1.5,5.7,1.9,10.1,2.3c-2.5-3.1-4-4.6-7.5-6.7
				C390.9-243.5,405-248.5,414.9-248.5z"/>
			<path class="st1" d="M437.7-180c-5.5-4.6-10.7-12.5-11.4-22.8c-1.1,10.2-3.2,18.1-8.2,24c0,0,6.3-3.1,8.6-9.2
				C429.6-182.7,437.7-180,437.7-180z"/>
			<path class="st1" d="M451.7-129.1c-1.2-6-6.3-11.2-12.9-13.7c2.7,7,1.7,13.8-2.2,19.8c0.9-7.8-1.5-13.2-5.8-18
				c1.4,4.8,1.2,9.3-1.1,13.9c0.9-8.5-6.2-12.8-15.6-18.4c-12.7-7.6-17.3-16-19.2-27.2c3.5,6.9,9.9,13.1,27.9,17.3
				C445-150.4,453.1-143.2,451.7-129.1z"/>
			
				<linearGradient id="SVGID_16_" gradientUnits="userSpaceOnUse" x1="55236.582" y1="36737.1914" x2="55213.2812" y2="36745.125" gradientTransform="matrix(-1 0 0 1 55684.9844 -36955.2266)">
				<stop  offset="0.2331" style="stop-color:#FAA61A"/>
				<stop  offset="0.7607" style="stop-color:#FFC20E"/>
			</linearGradient>
			<path class="st18" d="M451.4-221.3c4.7,4.6,6.9,12.2,7.3,21.7c0.5,12.5,5.4,17.7,13.3,18.5c-11.8-4.6-4.4-17.1-7.9-25.8
				c6.4,4.8,4.4,20.7,17.6,21.4c-9.8-3.2-2.8-16.7-9.3-24.5c7.8,0.1,11.4-6.1,21.5-3.2c-4.7-3.6-10-5.9-18.8-5.9
				c6.3-3.9,9-8.6,11.3-15.3C476.3-223.9,461.6-219.8,451.4-221.3z"/>
			
				<linearGradient id="SVGID_17_" gradientUnits="userSpaceOnUse" x1="-38969.207" y1="36737.1914" x2="-38992.5039" y2="36745.125" gradientTransform="matrix(1 0 0 1 39260.5586 -36955.2266)">
				<stop  offset="0.2331" style="stop-color:#FAA61A"/>
				<stop  offset="0.7607" style="stop-color:#FFC20E"/>
			</linearGradient>
			<path class="st19" d="M288.3-221.3c-4.7,4.6-6.9,12.2-7.3,21.7c-0.5,12.5-5.4,17.7-13.3,18.5c11.8-4.6,4.4-17.1,7.9-25.8
				c-6.4,4.8-4.4,20.7-17.6,21.4c9.8-3.2,2.8-16.7,9.3-24.5c-7.8,0.1-11.4-6.1-21.5-3.2c4.7-3.6,10-5.9,18.8-5.9
				c-6.3-3.9-9-8.6-11.3-15.3C263.5-223.9,278.2-219.8,288.3-221.3z"/>
			
				<linearGradient id="SVGID_18_" gradientUnits="userSpaceOnUse" x1="55344.0703" y1="-53091.7227" x2="55344.0703" y2="-53063.6172" gradientTransform="matrix(-1 0 0 -1 55684.9844 -53426.4453)">
				<stop  offset="0.2331" style="stop-color:#FAA61A"/>
				<stop  offset="0.7607" style="stop-color:#FFC20E"/>
			</linearGradient>
			<path class="st20" d="M315-369.7c2.6,13.8,25.4,16.3,30.3,34.1c3.8-19.1,21.3-19.9,21.5-33.1c-3.2,7.8-10.8,5.8-15.9,12.1
				c0.8-6.2,4.6-11.9,12.4-15.1c-7.7-1.1-15.6,1.8-19.1,9.6c-2.6-4.2-2.8-8.4-0.7-13.9c-4.7,3.6-7.5,9.3-5.7,16.6
				C330.6-366.8,320-362.7,315-369.7z"/>
			<path class="st5" d="M388.1-248.5c-4.3-0.7-9.4-3.2-14.1-1.2c2.3-1.8,1.1-3.5,2.5-5.2c-1.9,1.4-3.5,0.5-5,2.7
				c1.5-5.3-0.5-8.1-1.6-14.1c-1.1,6-3.2,8.8-1.6,14.1c-1.5-2.2-3.1-1.4-5-2.7c1.4,1.7,0.2,3.4,2.5,5.2c-4.7-2-9.9,0.6-14.1,1.2
				c4.3,0.7,9.4,3.2,14.1,1.2c-2.3,1.8-1.1,3.5-2.5,5.2c1.9-1.4,3.5-0.5,5-2.7c-1.5,5.3,0.5,8.1,1.6,14.1c1.1-6,3.2-8.8,1.6-14.1
				c1.5,2.2,3.1,1.4,5,2.7c-1.4-1.7-0.2-3.4-2.5-5.2C378.7-245.3,383.8-247.8,388.1-248.5z"/>
		</g>
		<g>
			
				<linearGradient id="SVGID_19_" gradientUnits="userSpaceOnUse" x1="-39021.0352" y1="36648.8789" x2="-39021.0352" y2="36676.9844" gradientTransform="matrix(1 0 0 1 39196.5586 -36940.6875)">
				<stop  offset="0.2331" style="stop-color:#FAA61A"/>
				<stop  offset="0.7607" style="stop-color:#FFC20E"/>
			</linearGradient>
			<path class="st21" d="M201.4-256.8c-2.6-13.8-25.4-16.3-30.3-34.1c-3.8,19.1-21.3,19.9-21.5,33.1c3.2-7.8,10.8-5.8,15.9-12.1
				c-0.8,6.2-4.6,11.9-12.4,15.1c7.7,1.1,15.6-1.8,19.1-9.6c2.6,4.2,2.8,8.4,0.7,13.9c4.7-3.6,7.5-9.3,5.7-16.6
				C185.8-259.8,196.5-263.8,201.4-256.8z"/>
			
				<radialGradient id="SVGID_20_" cx="-39114.0039" cy="-53048.3828" r="133.4365" gradientTransform="matrix(1 0 0 -1 39260.5586 -53426.4453)" gradientUnits="userSpaceOnUse">
				<stop  offset="0.3479" style="stop-color:#58AB40"/>
				<stop  offset="0.7607" style="stop-color:#80C342"/>
			</radialGradient>
			<path class="st22" d="M182.4-370.8c29.4,4,46.2,20.8,49.1,36.6c-3.9-9.3-13-15.2-23.6-18.6c10.6,14,7.2,31.9,21.1,41.7
				c-10.4-11-7.2-24.5-14.9-36.7c12.3,6.9,14.1,16.7,17,27.1c4.4,15.8,11.5,20.1,17.2,22.2c-11.7,0.4-28.7-4.5-36.8-20.1
				c-8.6-16.5-1.4-34.4-22.5-43.8c9.6,8.1,14.7,19.5,8.7,34.4c2.3-21.9-20.6-25.5-24.3-40.5c-0.6,11.5,7.2,21.2,14.5,25.9
				c-10.3-3.4-19.2-9-23.4-21.8c-6.9,21.4,5.3,38.5,12.9,38.5c2.6,0,4.5-1.7,4.5-4.2c0-6.4-11.6-6.4-14.6-18.9
				c5.3,10.8,25.5,8.9,25.5,20.8c0,9.7-13.6,14-22.4,8c6.4,8.3,21.3,8.6,25.6-1.4c0.7,4.3-1.3,10.8-7.5,13.1
				c-7,2.7-13.5-2.5-13.5-2.5c7.6,11,20.9,3.7,34.1,3.9c10.9,0.2,18.1,5.8,21.3,11.2c-3-1.5-4.6-1.9-7.6-2c6.3,3.9,10.8,12.8,9,21.5
				c-1.3-6.2-8.6-10.7-22.4-11.6c-15.6-1.1-23.8-3.6-29.1-9.3c11.2,5,28.9-1.9,41,6c-7.5-8.5-23.9-6.1-35.7-8
				c-20.7-3.3-33.3-38.3-31.7-53.6c-5.7,23.4,9.5,36.2,12.8,49.1c3.6,14.1-3.4,23.8-9.9,28.8c10.3-15.4-7.4-24.6-4.6-44.4
				c-5.2,19.2,4.4,24.7,4.4,34.6c0,9.8-8.6,13-10.3,25.5c-1.7-12.6-10.3-15.8-10.3-25.5c0-9.9,9.7-15.4,4.4-34.6
				c2.8,19.7-14.9,29-4.6,44.4c-6.6-5-13.6-14.7-9.9-28.8c3.3-12.9,18.4-25.7,12.8-49.1c1.6,15.3-11,50.3-31.7,53.6
				c-11.8,1.9-28.3-0.6-35.7,8c12-7.9,29.8-1.1,41-6c-5.3,5.7-13.5,8.2-29.1,9.3c-13.8,1-21.1,5.4-22.4,11.6
				c-1.8-8.7,2.8-17.6,9-21.5c-3,0.1-4.7,0.5-7.6,2c3.2-5.4,10.4-11,21.3-11.2c13.1-0.2,26.4,7.1,34.1-3.9c0,0-6.5,5.2-13.5,2.5
				c-6.1-2.4-8.1-8.8-7.5-13.1c4.3,10,19.2,9.8,25.5,1.4c-8.7,6.1-22.4,1.8-22.4-8c0-11.9,20.2-9.9,25.6-20.8
				c-3,12.4-14.6,12.4-14.6,18.9c0,2.5,1.9,4.2,4.5,4.2c7.6,0,19.8-17.1,12.9-38.5c-4.2,12.8-13.1,18.5-23.4,21.8
				c7.4-4.7,15.2-14.4,14.5-25.9C115.9-353.5,93-350,95.3-328c-6-14.9-0.9-26.4,8.7-34.4c-21,9.4-13.9,27.3-22.5,43.8
				c-8.1,15.6-25.1,20.6-36.8,20.1c5.7-2.1,12.8-6.3,17.2-22.2c2.9-10.5,4.8-20.3,17-27.1c-7.7,12.3-4.5,25.7-14.9,36.7
				c13.9-9.8,10.5-27.7,21.1-41.7c-10.6,3.4-19.7,9.4-23.6,18.6c2.9-15.8,19.7-32.5,49.1-36.6c-30.3-1.3-36.2,15.6-51.5,16.2
				c-9.7,0.4-18.1-8.4-28-13.7c12.1,3.1,31.1,11.3,41.2-2.1c0,0-6.2,5.3-18.3,3.7c-12.3-1.6-23.5-9.4-54.1-11.4
				c30.7-2,41.8-9.8,54.1-11.4c12.1-1.5,18.3,3.7,18.3,3.7c-10.1-13.5-29.1-5.2-41.2-2.1c9.9-5.3,18.4-14.1,28-13.7
				c15.3,0.6,21.1,17.5,51.5,16.2c-29.4-4-46.2-20.8-49.1-36.5c3.9,9.2,13,15.2,23.6,18.6c-10.6-14-7.2-31.9-21.1-41.7
				c10.4,11,7.2,24.5,14.9,36.7c-12.3-6.9-14.1-16.7-17-27.1c-4.4-15.8-11.5-20.1-17.2-22.2c11.7-0.4,28.7,4.5,36.8,20.1
				c8.6,16.5,1.4,34.4,22.5,43.8c-9.6-8.1-14.7-19.5-8.7-34.4c-2.3,21.9,20.6,25.5,24.3,40.5c0.6-11.5-7.2-21.2-14.5-25.9
				c10.3,3.4,19.2,9,23.4,21.8c6.9-21.4-5.3-38.5-12.9-38.5c-2.6,0-4.5,1.7-4.5,4.2c0,6.5,11.6,6.5,14.6,18.9
				c-5.3-10.8-25.6-8.9-25.6-20.8c0-9.7,13.6-14,22.4-8c-6.4-8.3-21.3-8.6-25.5,1.4c-0.7-4.3,1.3-10.8,7.5-13.1
				c7-2.7,13.5,2.5,13.5,2.5c-7.6-11-20.9-3.7-34.1-3.9c-10.9-0.2-18.1-5.8-21.3-11.2c3,1.5,4.6,1.9,7.6,2
				c-6.3-3.9-10.8-12.8-9-21.5c1.3,6.2,8.6,10.7,22.4,11.6c15.6,1.1,23.8,3.6,29.1,9.3c-11.2-5-28.9,1.9-41-6
				c7.5,8.5,23.9,6.1,35.7,8c20.7,3.3,33.3,38.3,31.7,53.6c5.7-23.4-9.5-36.2-12.8-49.1c-3.6-14.1,3.4-23.8,9.9-28.8
				c-10.3,15.4,7.4,24.6,4.6,44.4c5.2-19.2-4.4-24.7-4.4-34.6c0-9.8,8.6-13,10.3-25.5c1.7,12.6,10.3,15.8,10.3,25.5
				c0,9.9-9.7,15.4-4.4,34.6c-2.8-19.7,14.9-29,4.6-44.4c6.6,5,13.6,14.7,9.9,28.8c-3.3,12.9-18.4,25.7-12.8,49.1
				c-1.6-15.3,11-50.3,31.7-53.6c11.8-1.9,28.3,0.6,35.7-8c-12.1,7.9-29.8,1.1-41,6c5.3-5.7,13.5-8.2,29.1-9.3
				c13.8-1,21.1-5.4,22.4-11.6c1.8,8.7-2.8,17.6-9,21.5c3-0.1,4.7-0.5,7.6-2c-3.2,5.4-10.4,11-21.3,11.2
				c-13.1,0.2-26.4-7.1-34.1,3.9c0,0,6.5-5.2,13.5-2.5c6.1,2.4,8.1,8.8,7.5,13.1c-4.3-10-19.2-9.8-25.6-1.4c8.7-6.1,22.4-1.8,22.4,8
				c0,11.9-20.2,9.9-25.5,20.8c3-12.4,14.6-12.4,14.6-18.9c0-2.5-1.9-4.2-4.5-4.2c-7.6,0-19.8,17.1-12.9,38.5
				c4.2-12.8,13.1-18.5,23.4-21.8c-7.4,4.7-15.2,14.4-14.5,25.9c3.7-14.9,26.6-18.5,24.3-40.5c6,14.9,0.9,26.4-8.7,34.4
				c21-9.4,13.9-27.3,22.5-43.8c8.1-15.6,25.1-20.6,36.8-20.1c-5.7,2.1-12.8,6.3-17.2,22.2c-2.9,10.5-4.8,20.2-17,27.1
				c7.7-12.3,4.5-25.7,14.9-36.7c-13.9,9.8-10.5,27.7-21.1,41.7c10.6-3.4,19.7-9.4,23.6-18.6c-2.9,15.8-19.7,32.5-49.1,36.5
				c30.3,1.3,36.2-15.6,51.5-16.2c9.7-0.4,18.1,8.4,28,13.7c-12.1-3.1-31.1-11.3-41.2,2.1c0,0,6.2-5.3,18.3-3.7
				c12.3,1.6,23.5,9.4,54.1,11.4c-30.7,2-41.8,9.8-54.1,11.4c-12.1,1.5-18.3-3.7-18.3-3.7c10.1,13.5,29.1,5.2,41.2,2.1
				c-9.9,5.3-18.4,14.1-28,13.7C218.6-355.2,212.7-372.1,182.4-370.8z M215.8-378.1c4.6,1.2,8.6,3.8,14.5,3.8
				c7.1,0,11.1-2.8,16.7-3.8c-5.7-1-9.6-3.8-16.7-3.8C224.4-381.8,220.4-379.3,215.8-378.1z M143.5-468.4c0,5.1,3,8.4,3,12.1
				c0-3.7,3-7,3-12.1c0-4.6-2.2-6.7-3-11.4C145.8-475,143.5-472.9,143.5-468.4z M77.4-378.1c-4.6-1.2-8.6-3.8-14.5-3.8
				c-7.1,0-11.1,2.8-16.7,3.8c5.7,1,9.6,3.8,16.7,3.8C68.7-374.3,72.7-376.8,77.4-378.1z M149.6-287.8c0-5.1-3-8.4-3-12.1
				c0,3.7-3,7-3,12.1c0,4.6,2.2,6.7,3,11.4C147.3-281.1,149.6-283.2,149.6-287.8z M191.6-378.1c-9.9,0-24.1-5-35-3
				c3.4-2.1,5-3.7,7.5-6.7c-4.4,0.4-6.8,0.8-10.1,2.3c2.7-6,3.2-9.4,3.7-15.4c-3.1,3.6-4.6,5.7-6.6,10.6c0.7-12.4-4.3-15.2-4.6-31.8
				c-0.4,16.5-5.3,19.3-4.6,31.8c-1.9-4.9-3.5-7.1-6.6-10.6c0.5,6,1.1,9.4,3.7,15.4c-3.4-1.5-5.7-1.9-10.1-2.3
				c2.5,3.1,4,4.6,7.5,6.7c-10.9-2-25,3-35,3c9.9,0,24.1,5,35,3c-3.4,2.1-5,3.7-7.5,6.7c4.4-0.4,6.8-0.8,10.1-2.3
				c-2.7,6-3.2,9.4-3.7,15.4c3.1-3.6,4.6-5.7,6.6-10.6c-0.7,12.4,4.3,15.2,4.6,31.8c0.4-16.5,5.3-19.3,4.6-31.8
				c1.9,4.9,3.5,7.1,6.6,10.6c-0.5-6-1.1-9.4-3.7-15.4c3.4,1.5,5.7,1.9,10.1,2.3c-2.5-3.1-4-4.6-7.5-6.7
				C167.5-373.1,181.7-378.1,191.6-378.1z"/>
			<path class="st1" d="M214.4-309.6c-5.5-4.6-10.7-12.5-11.4-22.8c-1.1,10.2-3.2,18.1-8.2,24c0,0,6.3-3.1,8.6-9.2
				C206.3-312.3,214.4-309.6,214.4-309.6z"/>
			<path class="st1" d="M228.4-258.7c-1.2-6-6.3-11.2-12.9-13.7c2.7,7,1.7,13.8-2.2,19.8c0.9-7.8-1.5-13.2-5.8-18
				c1.4,4.8,1.2,9.3-1.1,13.9c0.9-8.5-6.2-12.8-15.6-18.4c-12.7-7.6-17.3-16-19.2-27.2c3.5,6.9,9.9,13.1,27.9,17.3
				C221.7-280,229.8-272.8,228.4-258.7z"/>
			
				<linearGradient id="SVGID_21_" gradientUnits="userSpaceOnUse" x1="55459.9023" y1="36607.5977" x2="55436.6016" y2="36615.5352" gradientTransform="matrix(-1 0 0 1 55684.9844 -36955.2266)">
				<stop  offset="0.2331" style="stop-color:#FAA61A"/>
				<stop  offset="0.7607" style="stop-color:#FFC20E"/>
			</linearGradient>
			<path class="st23" d="M228.1-350.9c4.7,4.6,6.9,12.2,7.3,21.7c0.5,12.5,5.4,17.7,13.3,18.5c-11.8-4.6-4.4-17.1-7.9-25.8
				c6.4,4.8,4.4,20.7,17.6,21.4c-9.8-3.2-2.8-16.7-9.3-24.5c7.8,0.1,11.4-6.1,21.5-3.2c-4.7-3.6-10-5.9-18.8-5.9
				c6.3-3.9,9-8.6,11.3-15.3C253-353.5,238.2-349.4,228.1-350.9z"/>
			<path class="st5" d="M164.8-378.1c-4.3-0.7-9.4-3.2-14.1-1.2c2.3-1.8,1.1-3.5,2.5-5.2c-1.9,1.4-3.5,0.5-5,2.7
				c1.5-5.3-0.5-8.1-1.6-14.1c-1.1,6-3.2,8.8-1.6,14.1c-1.5-2.2-3.1-1.4-5-2.7c1.4,1.7,0.2,3.4,2.5,5.2c-4.7-2-9.9,0.6-14.1,1.2
				c4.3,0.7,9.4,3.2,14.1,1.2c-2.3,1.8-1.1,3.5-2.5,5.2c1.9-1.4,3.5-0.5,5-2.7c-1.5,5.3,0.5,8.1,1.6,14.1c1.1-6,3.2-8.8,1.6-14.1
				c1.5,2.2,3.1,1.4,5,2.7c-1.4-1.7-0.2-3.4-2.5-5.2C155.4-374.9,160.5-377.4,164.8-378.1z"/>
		</g>
	</g>
</pattern>
<g id="star">
	<polygon id="XMLID_10_" class="Foliage_GS" points="327.5,22.9 394.1,214.7 597.1,218.8 435.3,341.4 494.1,535.7 327.5,419.8 
		160.9,535.7 219.7,341.4 57.9,218.8 260.8,214.7 	"/>
	<pattern  id="XMLID_2_" xlink:href="#Foliage" patternTransform="matrix(0 -0.7 0.7 0 -2786.7009 -12777.5654)">
	</pattern>
	<polygon id="XMLID_9_" class="st24" points="327.5,22.9 394.1,214.7 597.1,218.8 435.3,341.4 494.1,535.7 327.5,419.8 160.9,535.7 
		219.7,341.4 57.9,218.8 260.8,214.7 	"/>
</g>
<polygon id="littlestar" class="xyz st25" points="527.5,85.8 514.1,121.8 536.2,153.2 497.8,151.6 474.7,182.3 464.4,145.3 
	428.1,132.8 460.1,111.6 460.7,73.2 490.8,97 "/>
</svg>
