<?xml version="1.0" encoding="utf-8"?>
<!-- Generator: Adobe Illustrator 19.0.0, SVG Export Plug-In . SVG Version: 6.00 Build 0)  -->
<svg version="1.1" id="overall" xmlns="http://www.w3.org/2000/svg" xmlns:xlink="http://www.w3.org/1999/xlink" x="0px" y="0px"
	 viewBox="123 123.6 841.9 595.3" style="enable-background:new 123 123.6 841.9 595.3;" xml:space="preserve">
<style type="text/css">
	.st0{fill:none;}
	.st1{fill:#2C973E;}
	.st2{fill:url(#SVGID_1_);}
	.st3{fill:url(#SVGID_2_);}
	.st4{fill:url(#SVGID_3_);}
	.st5{fill:#FFC20E;}
	.st6{fill:url(#SVGID_4_);}
	.st7{fill:url(#SVGID_5_);}
	.st8{fill:url(#SVGID_6_);}
	.st9{fill:url(#SVGID_7_);}
	.st10{fill:url(#SVGID_8_);}
	.st11{fill:url(#SVGID_9_);}
	.st12{fill:url(#SVGID_10_);}
	.st13{fill:url(#SVGID_11_);}
	.st14{fill:url(#SVGID_12_);}
	.st15{fill:url(#SVGID_13_);}
	.st16{fill:url(#SVGID_14_);}
	.st17{fill:url(#SVGID_15_);}
	.st18{fill:url(#SVGID_16_);}
	.st19{fill:url(#SVGID_17_);}
	.st20{fill:url(#SVGID_18_);}
	.st21{fill:url(#SVGID_19_);}
	.st22{fill:url(#SVGID_20_);}
	.st23{fill:url(#SVGID_21_);}
	.st24{fill:url(#XMLID_4_);}
	.st25{fill:url(#XMLID_5_);}
	.st26{fill:#FFFFFF;stroke:#000000;stroke-miterlimit:10;}
	.st27{fill:url(#draggable_1_);stroke:#000000;stroke-miterlimit:10;}
</style>
<pattern  x="123" y="718.9" width="446.6" height="259.2" patternUnits="userSpaceOnUse" id="XMLID_2_" viewBox="146.7 -378 446.6 259.2" style="overflow:visible;">
	<g>
		<polygon class="st0" points="146.7,-118.8 593.3,-118.8 593.3,-378 146.7,-378 		"/>
		<g>
			<polygon class="st0" points="146.7,-378 593.3,-378 593.3,-118.8 146.7,-118.8 			"/>
			<g>
				<polygon class="st0" points="146.7,-378 593.3,-378 593.3,-118.8 146.7,-118.8 				"/>
				<g>
					<path class="st1" d="M525.5-187.3c5.5,4.6,10.7,12.5,11.4,22.8c1.1-10.2,3.2-18.1,8.2-24c0,0-6.3,3.1-8.6,9.2
						C533.6-184.6,525.5-187.3,525.5-187.3z"/>
					<path class="st1" d="M511.5-238.2c1.2,6,6.3,11.2,12.9,13.7c-2.7-7-1.7-13.8,2.2-19.8c-0.9,7.8,1.5,13.2,5.8,18
						c-1.4-4.8-1.2-9.3,1.1-13.9c-0.9,8.5,6.2,12.8,15.6,18.4c12.7,7.6,17.3,16,19.2,27.2c-3.5-6.9-9.9-13.1-27.9-17.3
						C518.1-216.8,510.1-224.1,511.5-238.2z"/>
					
						<linearGradient id="SVGID_1_" gradientUnits="userSpaceOnUse" x1="-38745.7891" y1="-70501.2422" x2="-38769.0859" y2="-70493.3047" gradientTransform="matrix(1 0 0 -1 39260.5586 -70650.4453)">
						<stop  offset="0.2331" style="stop-color:#FAA61A"/>
						<stop  offset="0.7607" style="stop-color:#FFC20E"/>
					</linearGradient>
					<path class="st2" d="M511.8-145.9c-4.7-4.6-6.9-12.2-7.3-21.7c-0.5-12.5-5.4-17.7-13.3-18.5c11.8,4.6,4.4,17.1,7.9,25.8
						c-6.4-4.8-4.4-20.7-17.6-21.4c9.8,3.2,2.8,16.7,9.3,24.5c-7.8-0.1-11.4,6.1-21.5,3.2c4.7,3.6,10,5.9,18.8,5.9
						c-6.3,3.9-9,8.6-11.3,15.3C486.9-143.3,501.6-147.4,511.8-145.9z"/>
					
						<radialGradient id="SVGID_2_" cx="-38667.0586" cy="-70531.6953" r="133.3109" gradientTransform="matrix(1 0 0 -1 39260.5586 -70650.4453)" gradientUnits="userSpaceOnUse">
						<stop  offset="0.3479" style="stop-color:#58AB40"/>
						<stop  offset="0.7607" style="stop-color:#80C342"/>
					</radialGradient>
					<path class="st3" d="M629.1-111.5c29.4,4,46.2,20.8,49.1,36.6c-3.9-9.3-13-15.2-23.6-18.6c10.6,14,7.2,31.9,21.1,41.7
						c-10.4-11-7.2-24.5-14.9-36.7c12.3,6.9,14.1,16.7,17,27.1c4.4,15.8,11.5,20.1,17.2,22.2c-11.7,0.5-28.7-4.5-36.8-20.1
						c-8.6-16.5-1.4-34.4-22.5-43.8c9.6,8.1,14.7,19.5,8.7,34.4c2.3-21.9-20.6-25.5-24.3-40.5c-0.6,11.5,7.2,21.2,14.5,25.9
						c-10.3-3.4-19.2-9-23.4-21.8c-6.9,21.4,5.3,38.5,12.9,38.5c2.6,0,4.5-1.7,4.5-4.2c0-6.4-11.6-6.4-14.6-18.9
						c5.3,10.8,25.5,8.9,25.5,20.8c0,9.7-13.6,14-22.4,8c6.4,8.3,21.3,8.6,25.6-1.4c0.7,4.3-1.3,10.8-7.5,13.1
						c-7,2.7-13.5-2.5-13.5-2.5c7.6,11,20.9,3.7,34.1,3.9c10.9,0.2,18.1,5.8,21.3,11.2c-3-1.5-4.6-1.9-7.6-2
						c6.3,3.9,10.8,12.8,9,21.5c-1.3-6.2-8.6-10.7-22.4-11.6c-15.6-1.1-23.8-3.6-29.1-9.3c11.2,5,28.9-1.9,41,6
						c-7.5-8.5-23.9-6.1-35.7-8c-20.7-3.3-33.3-38.3-31.7-53.6c-5.7,23.4,9.5,36.2,12.8,49.1c3.6,14.1-3.4,23.8-9.9,28.8
						c10.3-15.4-7.4-24.6-4.6-44.4c-5.2,19.2,4.4,24.7,4.4,34.6c0,9.8-8.6,13-10.3,25.5c-1.7-12.6-10.3-15.8-10.3-25.5
						c0-9.9,9.7-15.4,4.4-34.6c2.8,19.7-14.9,29-4.6,44.4c-6.6-5-13.6-14.7-9.9-28.8c3.3-12.9,18.4-25.7,12.8-49.1
						c1.6,15.3-11,50.3-31.7,53.6c-11.8,1.9-28.3-0.6-35.7,8c12-7.9,29.8-1.1,41-6c-5.3,5.7-13.5,8.2-29.1,9.3
						c-13.8,1-21.1,5.4-22.4,11.6c-1.8-8.7,2.8-17.6,9-21.5c-3,0.1-4.7,0.5-7.6,2c3.2-5.4,10.4-11,21.3-11.2
						c13.1-0.2,26.4,7.1,34.1-3.9c0,0-6.5,5.2-13.5,2.5c-6.1-2.4-8.1-8.8-7.5-13.1c4.3,10,19.2,9.8,25.5,1.4
						c-8.7,6.1-22.4,1.8-22.4-8c0-11.9,20.2-9.9,25.6-20.8c-3,12.4-14.6,12.4-14.6,18.9c0,2.5,1.9,4.2,4.5,4.2
						c7.6,0,19.8-17.1,12.9-38.5c-4.2,12.8-13.1,18.5-23.4,21.8c7.4-4.7,15.2-14.4,14.5-25.9c-3.7,14.9-26.6,18.5-24.3,40.5
						c-6-14.9-0.9-26.4,8.7-34.4c-21,9.4-13.9,27.3-22.5,43.8c-8.1,15.6-25.1,20.6-36.8,20.1c5.7-2.1,12.8-6.3,17.2-22.2
						c2.9-10.5,4.8-20.3,17-27.1c-7.7,12.3-4.5,25.7-14.9,36.7c13.9-9.8,10.5-27.7,21.1-41.7c-10.6,3.4-19.7,9.4-23.6,18.6
						c2.9-15.8,19.7-32.5,49.1-36.6c-30.3-1.3-36.2,15.6-51.5,16.2c-9.7,0.4-18.1-8.4-28-13.7c12.7,3.1,31.7,11.3,41.7-2.1
						c0,0-6.2,5.3-18.3,3.7c-12.3-1.6-23.5-9.4-54.1-11.4c30.7-2,41.8-9.8,54.1-11.4c12.1-1.5,18.3,3.7,18.3,3.7
						c-10.1-13.5-29.1-5.2-41.2-2.1c9.9-5.3,18.4-14.1,28-13.7c15.3,0.6,21.1,17.5,51.5,16.2c-29.4-4-46.2-20.8-49.1-36.5
						c3.9,9.2,13,15.2,23.6,18.6c-10.6-14-7.2-31.9-21.1-41.7c10.4,11,7.2,24.5,14.9,36.7c-12.3-6.9-14.1-16.7-17-27.1
						c-4.4-15.8-11.5-20.1-17.2-22.2c11.7-0.4,28.7,4.5,36.8,20.1c8.6,16.5,1.4,34.4,22.5,43.8c-9.6-8.1-14.7-19.5-8.7-34.4
						c-2.3,21.9,20.6,25.5,24.3,40.5c0.6-11.5-7.2-21.2-14.5-25.9c10.3,3.4,19.2,9,23.4,21.8c6.9-21.4-5.3-38.5-12.9-38.5
						c-2.6,0-4.5,1.7-4.5,4.2c0,6.5,11.6,6.5,14.6,18.9c-5.3-10.8-25.6-8.9-25.6-20.8c0-9.7,13.6-14,22.4-8
						c-6.4-8.3-21.3-8.6-25.5,1.4c-0.7-4.3,1.3-10.8,7.5-13.1c7-2.7,13.5,2.5,13.5,2.5c-7.6-11-20.9-3.7-34.1-3.9
						c-10.9-0.2-18.1-5.8-21.3-11.2c3,1.5,4.6,1.9,7.6,2c-6.3-3.9-10.8-12.8-9-21.5c1.3,6.2,8.6,10.7,22.4,11.6
						c15.6,1.1,23.8,3.6,29.1,9.3c-11.2-5-28.9,1.9-41-6c7.5,8.5,23.9,6.1,35.7,8c20.7,3.3,33.3,38.3,31.7,53.6
						c5.7-23.4-9.5-36.2-12.8-49.1c-3.6-14.1,3.4-23.8,9.9-28.8c-10.3,15.4,7.4,24.6,4.6,44.4c5.2-19.2-4.4-24.7-4.4-34.6
						c0-9.8,8.6-13,10.3-25.5c1.7,12.6,10.3,15.8,10.3,25.5c0,9.9-9.7,15.4-4.4,34.6c-2.8-19.7,14.9-29,4.6-44.4
						c6.6,5,13.6,14.7,9.9,28.8c-3.3,12.9-18.4,25.7-12.8,49.1c-1.6-15.3,11-50.3,31.7-53.6c11.8-1.9,28.3,0.6,35.7-8
						c-12.1,7.9-29.8,1.1-41,6c5.3-5.7,13.5-8.2,29.1-9.3c13.8-1,21.1-5.4,22.4-11.6c1.8,8.7-2.8,17.6-9,21.5c3-0.1,4.7-0.5,7.6-2
						c-3.2,5.4-10.4,11-21.3,11.2c-13.1,0.2-26.4-7.1-34.1,3.9c0,0,6.5-5.2,13.5-2.5c6.1,2.4,8.1,8.8,7.5,13.1
						c-4.3-10-19.2-9.8-25.6-1.4c8.7-6.1,22.4-1.8,22.4,8c0,11.9-20.2,9.9-25.5,20.8c3-12.4,14.6-12.4,14.6-18.9
						c0-2.5-1.9-4.2-4.5-4.2c-7.6,0-19.8,17.1-12.9,38.5c4.2-12.8,13.1-18.5,23.4-21.8c-7.4,4.7-15.2,14.4-14.5,25.9
						c3.7-14.9,26.6-18.5,24.3-40.5c6,14.9,0.9,26.4-8.7,34.4c21-9.4,13.9-27.3,22.5-43.8c8.1-15.6,25.1-20.6,36.8-20.1
						c-5.7,2.1-12.8,6.3-17.2,22.2c-2.9,10.5-4.8,20.3-17,27.1c7.7-12.3,4.5-25.7,14.9-36.7c-13.9,9.8-10.5,27.7-21.1,41.7
						c10.6-3.4,19.7-9.4,23.6-18.6c-2.9,15.8-19.7,32.5-49.1,36.5c30.3,1.3,36.2-15.6,51.5-16.2c9.7-0.4,18.1,8.4,28,13.7
						c-12.1-3.1-31.1-11.3-41.2,2.1c0,0,6.2-5.3,18.3-3.7c12.3,1.6,23.5,9.4,54.1,11.4c-30.7,2-41.8,9.8-54.1,11.4
						c-12.1,1.5-18.3-3.7-18.3-3.7c10.1,13.5,29.1,5.2,41.2,2.1c-9.9,5.3-18.4,14.1-28,13.7C665.3-95.9,659.5-112.8,629.1-111.5z
						 M662.5-118.8c4.6,1.2,8.6,3.8,14.5,3.8c7.1,0,11.1-2.8,16.7-3.8c-5.7-1-9.6-3.8-16.7-3.8C671.1-122.5,667.1-120,662.5-118.8z
						 M590.3-209.1c0,5.1,3,8.4,3,12.1c0-3.7,3-7,3-12.1c0-4.6-2.2-6.7-3-11.4C592.5-215.7,590.3-213.7,590.3-209.1z M524.1-118.8
						c-4.6-1.2-8.6-3.8-14.5-3.8c-7.1,0-11.1,2.8-16.7,3.8c5.7,1,9.6,3.8,16.7,3.8C515.5-115,519.5-117.5,524.1-118.8z M596.3-28.5
						c0-5.1-3-8.4-3-12.1c0,3.7-3,7-3,12.1c0,4.6,2.2,6.7,3,11.4C594.1-21.8,596.3-23.9,596.3-28.5z M638.4-118.8
						c-9.9,0-24.1-5-35-3c3.4-2.1,5-3.7,7.5-6.7c-4.4,0.4-6.8,0.8-10.1,2.3c2.7-6,3.2-9.4,3.7-15.4c-3.1,3.6-4.6,5.7-6.6,10.6
						c0.7-12.4-4.3-15.2-4.6-31.8c-0.4,16.5-5.3,19.3-4.6,31.8c-1.9-4.9-3.5-7.1-6.6-10.6c0.5,6,1.1,9.4,3.7,15.4
						c-3.4-1.5-5.7-1.9-10.1-2.3c2.5,3.1,4,4.6,7.5,6.7c-10.9-2-25,3-35,3c9.9,0,24.1,5,35,3c-3.4,2.1-5,3.7-7.5,6.7
						c4.4-0.4,6.8-0.8,10.1-2.3c-2.7,6-3.2,9.4-3.7,15.4c3.1-3.6,4.6-5.7,6.6-10.6c-0.7,12.4,4.3,15.2,4.6,31.8
						c0.4-16.5,5.3-19.3,4.6-31.8c1.9,4.9,3.5,7.1,6.6,10.6c-0.5-6-1.1-9.4-3.7-15.4c3.4,1.5,5.7,1.9,10.1,2.3
						c-2.5-3.1-4-4.6-7.5-6.7C614.3-113.8,628.4-118.8,638.4-118.8z"/>
					
						<linearGradient id="SVGID_3_" gradientUnits="userSpaceOnUse" x1="86696.6875" y1="-70445.4219" x2="86696.6875" y2="-70417.3125" gradientTransform="matrix(-1 0 0 -1 87260.9844 -70650.4453)">
						<stop  offset="0.2331" style="stop-color:#FAA61A"/>
						<stop  offset="0.7607" style="stop-color:#FFC20E"/>
					</linearGradient>
					<path class="st4" d="M538.4-240c2.6,13.8,25.4,16.3,30.3,34.1c3.8-19.1,21.3-19.9,21.5-33.1c-3.2,7.8-10.8,5.8-15.9,12.1
						c0.8-6.2,4.6-11.9,12.4-15.1c-7.7-1.1-15.6,1.8-19.1,9.6c-2.6-4.2-2.8-8.4-0.7-13.9c-4.7,3.6-7.5,9.3-5.7,16.6
						C554-237.1,543.4-233,538.4-240z"/>
					<path class="st5" d="M611.5-118.8c-4.3-0.7-9.4-3.2-14.1-1.2c2.3-1.8,1.1-3.5,2.5-5.2c-1.9,1.4-3.5,0.5-5,2.7
						c1.5-5.3-0.5-8.1-1.6-14.1c-1.1,6-3.2,8.8-1.6,14.1c-1.5-2.2-3.1-1.4-5-2.7c1.4,1.7,0.2,3.4,2.5,5.2c-4.7-2-9.9,0.6-14.1,1.2
						c4.3,0.7,9.4,3.2,14.1,1.2c-2.3,1.8-1.1,3.5-2.5,5.2c1.9-1.4,3.5-0.5,5-2.7c-1.5,5.3,0.5,8.1,1.6,14.1c1.1-6,3.2-8.8,1.6-14.1
						c1.5,2.2,3.1,1.4,5,2.7c-1.4-1.7-0.2-3.4-2.5-5.2C602.1-115.6,607.3-118.1,611.5-118.8z"/>
				</g>
				<g>
					
						<linearGradient id="SVGID_4_" gradientUnits="userSpaceOnUse" x1="87035.7969" y1="-70501.2578" x2="87012.5" y2="-70493.3203" gradientTransform="matrix(-1 0 0 -1 87260.9844 -70650.4453)">
						<stop  offset="0.2331" style="stop-color:#FAA61A"/>
						<stop  offset="0.7607" style="stop-color:#FFC20E"/>
					</linearGradient>
					<path class="st6" d="M228.2-145.9c4.7-4.6,6.9-12.2,7.3-21.7c0.5-12.5,5.4-17.7,13.3-18.5c-11.8,4.6-4.4,17.1-7.9,25.8
						c6.4-4.8,4.4-20.7,17.6-21.4c-9.8,3.2-2.8,16.7-9.3,24.5c7.8-0.1,11.4,6.1,21.5,3.2c-4.7,3.6-10,5.9-18.8,5.9
						c6.3,3.9,9,8.6,11.3,15.3C253.1-143.3,238.3-147.4,228.2-145.9z"/>
					<path class="st1" d="M214.5-187.3c-5.5,4.6-10.7,12.5-11.4,22.8c-1.1-10.2-3.2-18.1-8.2-24c0,0,6.3,3.1,8.6,9.2
						C206.4-184.6,214.5-187.3,214.5-187.3z"/>
					<path class="st1" d="M228.5-238.2c-1.2,6-6.3,11.2-12.9,13.7c2.7-7,1.7-13.8-2.2-19.8c0.9,7.8-1.5,13.2-5.8,18
						c1.4-4.8,1.2-9.3-1.1-13.9c0.9,8.5-6.2,12.8-15.6,18.4c-12.7,7.6-17.3,16-19.2,27.2c3.5-6.9,9.9-13.1,27.9-17.3
						C221.8-216.8,229.9-224.1,228.5-238.2z"/>
					
						<linearGradient id="SVGID_5_" gradientUnits="userSpaceOnUse" x1="-39084.957" y1="-70445.4219" x2="-39084.957" y2="-70417.3125" gradientTransform="matrix(1 0 0 -1 39260.5586 -70650.4453)">
						<stop  offset="0.2331" style="stop-color:#FAA61A"/>
						<stop  offset="0.7607" style="stop-color:#FFC20E"/>
					</linearGradient>
					<path class="st7" d="M201.5-240c-2.6,13.8-25.4,16.3-30.3,34.1c-3.8-19.1-21.3-19.9-21.5-33.1c3.2,7.8,10.8,5.8,15.9,12.1
						c-0.8-6.2-4.6-11.9-12.4-15.1c7.7-1.1,15.6,1.8,19.1,9.6c2.6-4.2,2.8-8.4,0.7-13.9c4.7,3.6,7.5,9.3,5.7,16.6
						C185.9-237.1,196.6-233,201.5-240z"/>
					
						<radialGradient id="SVGID_6_" cx="-39113.9023" cy="-70531.6953" r="133.4234" gradientTransform="matrix(1 0 0 -1 39260.5586 -70650.4453)" gradientUnits="userSpaceOnUse">
						<stop  offset="0.3479" style="stop-color:#58AB40"/>
						<stop  offset="0.7607" style="stop-color:#80C342"/>
					</radialGradient>
					<path class="st8" d="M182.5-111.5c29.4,4,46.2,20.8,49.1,36.6c-3.9-9.3-13-15.2-23.6-18.6c10.6,14,7.2,31.9,21.1,41.7
						c-10.4-11-7.2-24.5-14.9-36.7c12.3,6.9,14.1,16.7,17,27.1c4.4,15.8,11.5,20.1,17.2,22.2c-11.7,0.5-28.7-4.5-36.8-20.1
						c-8.6-16.5-1.4-34.4-22.5-43.8c9.6,8.1,14.7,19.5,8.7,34.4c2.3-21.9-20.6-25.5-24.3-40.5c-0.6,11.5,7.2,21.2,14.5,25.9
						c-10.3-3.4-19.2-9-23.4-21.8c-6.9,21.4,5.3,38.5,12.9,38.5c2.6,0,4.5-1.7,4.5-4.2c0-6.4-11.6-6.4-14.6-18.9
						c5.5,10.8,25.7,8.9,25.7,20.8c0,9.7-13.6,14-22.4,8c6.4,8.3,21.3,8.6,25.6-1.4c0.7,4.3-1.3,10.8-7.5,13.1
						c-7,2.7-13.5-2.5-13.5-2.5c7.6,11,20.9,3.7,34.1,3.9c10.9,0.2,18.1,5.8,21.3,11.2c-3-1.5-4.6-1.9-7.6-2
						c6.3,3.9,10.8,12.8,9,21.5c-1.3-6.2-8.6-10.7-22.4-11.6c-15.6-1.1-23.8-3.6-29.1-9.3c11.2,5,28.9-1.9,41,6
						c-7.5-8.5-23.9-6.1-35.7-8c-20.7-3.3-33.3-38.3-31.7-53.6c-5.7,23.4,9.5,36.2,12.8,49.1c3.6,14.1-3.4,23.8-9.9,28.8
						c10.3-15.4-7.4-24.6-4.6-44.4c-5.2,19.2,4.4,24.7,4.4,34.6c0,9.8-8.6,13-10.3,25.5c-1.7-12.6-10.3-15.8-10.3-25.5
						c0-9.9,9.7-15.4,4.4-34.6c2.8,19.7-14.9,29-4.6,44.4c-6.6-5-13.6-14.7-9.9-28.8c3.3-12.9,18.4-25.7,12.8-49.1
						c1.6,15.3-11,50.3-31.7,53.6c-11.8,1.9-28.3-0.6-35.7,8c12-7.9,29.8-1.1,41-6c-5.3,5.7-13.5,8.2-29.1,9.3
						c-13.8,1-21.1,5.4-22.4,11.6c-1.8-8.7,2.8-17.6,9-21.5c-3,0.1-4.7,0.5-7.6,2c3.2-5.4,10.4-11,21.3-11.2
						c13.1-0.2,26.4,7.1,34.1-3.9c0,0-6.5,5.2-13.5,2.5c-6.1-2.4-8.1-8.8-7.5-13.1c4.3,10,19.2,9.8,25.5,1.4
						c-8.7,6.1-22.4,1.8-22.4-8c0-11.9,20.2-9.9,25.6-20.8c-3,12.4-14.6,12.4-14.6,18.9c0,2.5,1.9,4.2,4.5,4.2
						c7.6,0,19.8-17.1,12.9-38.5c-4.2,12.8-13.1,18.5-23.4,21.8c7.4-4.7,15.2-14.4,14.5-25.9c-3.5,15-26.4,18.5-24.1,40.5
						c-6-14.9-0.9-26.4,8.7-34.4c-21,9.4-13.9,27.3-22.5,43.8c-8.1,15.6-25.1,20.6-36.8,20.1c5.7-2.1,12.8-6.3,17.2-22.2
						c2.9-10.5,4.8-20.3,17-27.1c-7.6,12.2-4.5,25.6-14.8,36.6c13.9-9.8,10.5-27.7,21.1-41.7C74.7-90.2,65.6-84.2,61.7-75
						c2.9-15.8,19.7-32.5,49.1-36.6c-30.3-1.2-36.2,15.7-51.4,16.3c-9.7,0.4-18.1-8.4-28-13.7c12.1,3.1,31.1,11.3,41.2-2.1
						c0,0-6.2,5.3-18.3,3.7C42-109,30.8-116.8,0.2-118.8c30.7-2,41.8-9.8,54.1-11.4c12.1-1.5,18.3,3.7,18.3,3.7
						c-10.1-13.5-29.1-5.2-41.2-2.1c9.9-5.3,18.4-14.1,28-13.7c15.3,0.6,21.1,17.5,51.5,16.2c-29.4-4-46.2-20.8-49.1-36.5
						c3.9,9.2,13,15.2,23.6,18.6c-10.6-14-7.2-31.9-21.1-41.7c10.4,11,7.2,24.5,14.9,36.7c-12.3-6.9-14.1-16.7-17-27.1
						c-4.4-15.8-11.5-20.1-17.2-22.2c11.7-0.4,28.7,4.5,36.8,20.1c8.6,16.5,1.4,34.4,22.5,43.8c-9.6-8.1-14.7-19.5-8.7-34.4
						c-2.3,21.9,20.6,25.5,24.3,40.5c0.6-11.5-7.2-21.2-14.5-25.9c10.3,3.4,19.2,9,23.4,21.8c6.9-21.4-5.3-38.5-12.9-38.5
						c-2.6,0-4.5,1.7-4.5,4.2c0,6.5,11.6,6.5,14.6,18.9c-5.3-10.8-25.6-8.9-25.6-20.8c0-9.7,13.6-14,22.4-8
						c-6.4-8.3-21.3-8.6-25.5,1.4c-0.7-4.3,1.3-10.8,7.5-13.1c7-2.7,13.5,2.5,13.5,2.5c-7.6-11-20.9-3.7-34.1-3.9
						c-10.9-0.2-18.1-5.8-21.3-11.2c3,1.5,4.6,1.9,7.6,2c-6.3-3.9-10.8-12.8-9-21.5c1.3,6.2,8.6,10.7,22.4,11.6
						c15.6,1.1,23.8,3.6,29.1,9.3c-11.2-5-28.9,1.9-41-6c7.5,8.5,23.9,6.1,35.7,8c20.7,3.3,33.3,38.3,31.7,53.6
						c5.7-23.4-9.5-36.2-12.8-49.1c-3.6-14.1,3.4-23.8,9.9-28.8c-10.3,15.4,7.4,24.6,4.6,44.4c5.2-19.2-4.4-24.7-4.4-34.6
						c0-9.8,8.6-13,10.3-25.5c1.7,12.6,10.3,15.8,10.3,25.5c0,9.9-9.7,15.4-4.4,34.6c-2.8-19.7,14.9-29,4.6-44.4
						c6.6,5,13.6,14.7,9.9,28.8c-3.3,12.9-18.4,25.7-12.8,49.1c-1.6-15.3,11-50.3,31.7-53.6c11.8-1.9,28.3,0.6,35.7-8
						c-12.1,7.9-29.8,1.1-41,6c5.3-5.7,13.5-8.2,29.1-9.3c13.8-1,21.1-5.4,22.4-11.6c1.8,8.7-2.8,17.6-9,21.5c3-0.1,4.7-0.5,7.6-2
						c-3.2,5.4-10.4,11-21.3,11.2c-13.1,0.2-26.4-7.1-34.1,3.9c0,0,6.5-5.2,13.5-2.5c6.1,2.4,8.1,8.8,7.5,13.1
						c-4.3-10-19.2-9.8-25.6-1.4c8.7-6.1,22.4-1.8,22.4,8c0,11.9-20.2,9.9-25.5,20.8c3-12.4,14.6-12.4,14.6-18.9
						c0-2.5-1.9-4.2-4.5-4.2c-7.6,0-19.8,17.1-12.9,38.5c4.2-12.8,13.1-18.5,23.4-21.8c-7.4,4.7-15.2,14.4-14.5,25.9
						c3.7-14.9,26.6-18.5,24.3-40.5c6,14.9,0.9,26.4-8.7,34.4c21-9.4,13.9-27.3,22.5-43.8c8.1-15.6,25.1-20.6,36.8-20.1
						c-5.7,2.1-12.8,6.3-17.2,22.2c-2.9,10.5-4.8,20.3-17,27.1c7.7-12.3,4.5-25.7,14.9-36.7c-13.9,9.8-10.5,27.7-21.1,41.7
						c10.6-3.4,19.7-9.4,23.6-18.6c-2.9,15.8-19.7,32.5-49.1,36.5c30.3,1.3,36.2-15.6,51.5-16.2c9.7-0.4,18.1,8.4,28,13.7
						c-12.1-3.1-31.1-11.3-41.2,2.1c0,0,6.2-5.3,18.3-3.7c12.3,1.6,23.5,9.4,54.1,11.4c-30.7,2-41.8,9.8-54.1,11.4
						c-12.1,1.5-18.3-3.7-18.3-3.7c10.1,13.5,29.1,5.2,41.2,2.1c-9.9,5.3-18.4,14.1-28,13.7C218.7-95.9,212.8-112.8,182.5-111.5z
						 M215.9-118.8c4.6,1.2,8.6,3.8,14.5,3.8c7.1,0,11.1-2.8,16.7-3.8c-5.7-1-9.6-3.8-16.7-3.8C224.5-122.5,220.5-120,215.9-118.8z
						 M143.6-209.1c0,5.1,3,8.4,3,12.1c0-3.7,3-7,3-12.1c0-4.6-2.2-6.7-3-11.4C145.9-215.7,143.6-213.7,143.6-209.1z M77.5-118.8
						c-4.6-1.2-8.6-3.8-14.5-3.8c-7.1,0-11.1,2.8-16.7,3.8c5.7,1,9.6,3.8,16.7,3.8C68.8-115,72.8-117.5,77.5-118.8z M149.7-28.5
						c0-5.1-3-8.4-3-12.1c0,3.7-3,7-3,12.1c0,4.6,2.2,6.7,3,11.4C147.4-21.8,149.7-23.9,149.7-28.5z M191.7-118.8
						c-9.9,0-24.1-5-35-3c3.4-2.1,5-3.7,7.5-6.7c-4.4,0.4-6.8,0.8-10.1,2.3c2.7-6,3.2-9.4,3.7-15.4c-3.1,3.6-4.6,5.7-6.6,10.6
						c0.7-12.4-4.3-15.2-4.6-31.8c-0.4,16.5-5.3,19.3-4.6,31.8c-1.9-4.9-3.5-7.1-6.6-10.6c0.5,6,1.1,9.4,3.7,15.4
						c-3.4-1.5-5.7-1.9-10.1-2.3c2.5,3.1,4,4.6,7.5,6.7c-10.9-2-25,3-35,3c9.9,0,24.1,5,35,3c-3.4,2.1-5,3.7-7.5,6.7
						c4.4-0.4,6.8-0.8,10.1-2.3c-2.7,6-3.2,9.4-3.7,15.4c3.1-3.6,4.6-5.7,6.6-10.6c-0.7,12.4,4.3,15.2,4.6,31.8
						c0.4-16.5,5.3-19.3,4.6-31.8c1.9,4.9,3.5,7.1,6.6,10.6c-0.5-6-1.1-9.4-3.7-15.4c3.4,1.5,5.7,1.9,10.1,2.3
						c-2.5-3.1-4-4.6-7.5-6.7C167.6-113.8,181.8-118.8,191.7-118.8z"/>
					<path class="st5" d="M164.9-118.8c-4.3-0.7-9.4-3.2-14.1-1.2c2.3-1.8,1.1-3.5,2.5-5.2c-1.9,1.4-3.5,0.5-5,2.7
						c1.5-5.3-0.5-8.1-1.6-14.1c-1.1,6-3.2,8.8-1.6,14.1c-1.5-2.2-3.1-1.4-5-2.7c1.4,1.7,0.2,3.4,2.5,5.2c-4.7-2-9.9,0.6-14.1,1.2
						c4.3,0.7,9.4,3.2,14.1,1.2c-2.3,1.8-1.1,3.5-2.5,5.2c1.9-1.4,3.5-0.5,5-2.7c-1.5,5.3,0.5,8.1,1.6,14.1c1.1-6,3.2-8.8,1.6-14.1
						c1.5,2.2,3.1,1.4,5,2.7c-1.4-1.7-0.2-3.4-2.5-5.2C155.5-115.6,160.6-118.1,164.9-118.8z"/>
				</g>
				<g>
					
						<linearGradient id="SVGID_7_" gradientUnits="userSpaceOnUse" x1="86632.6875" y1="19424.9785" x2="86632.6875" y2="19453.084" gradientTransform="matrix(-1 0 0 1 87196.9844 -19716.6875)">
						<stop  offset="0.2331" style="stop-color:#FAA61A"/>
						<stop  offset="0.7607" style="stop-color:#FFC20E"/>
					</linearGradient>
					<path class="st9" d="M538.4-256.7c2.6-13.8,25.4-16.3,30.3-34.1c3.8,19.1,21.3,19.9,21.5,33.1c-3.2-7.8-10.8-5.8-15.9-12.1
						c0.8,6.2,4.6,11.9,12.4,15.1c-7.7,1.1-15.6-1.8-19.1-9.6c-2.6,4.2-2.8,8.4-0.7,13.9c-4.7-3.6-7.5-9.3-5.7-16.6
						C554-259.7,543.4-263.7,538.4-256.7z"/>
					<path class="st1" d="M525.5-309.5c5.5-4.6,10.7-12.5,11.4-22.8c1.1,10.2,3.2,18.1,8.2,24c0,0-6.3-3.1-8.6-9.2
						C533.6-312.2,525.5-309.5,525.5-309.5z"/>
					<path class="st1" d="M511.5-258.6c1.2-6,6.3-11.2,12.9-13.7c-2.7,7-1.7,13.8,2.2,19.8c-0.9-7.8,1.5-13.2,5.8-18
						c-1.4,4.8-1.2,9.3,1.1,13.9c-0.9-8.5,6.2-12.8,15.6-18.4c12.7-7.6,17.3-16,19.2-27.2c-3.5,6.9-9.9,13.1-27.9,17.3
						C518.1-279.9,510.1-272.7,511.5-258.6z"/>
					
						<radialGradient id="SVGID_8_" cx="-38667.2617" cy="-70272.5" r="133.3505" gradientTransform="matrix(1 0 0 -1 39260.5586 -70650.4453)" gradientUnits="userSpaceOnUse">
						<stop  offset="0.3479" style="stop-color:#58AB40"/>
						<stop  offset="0.7607" style="stop-color:#80C342"/>
					</radialGradient>
					<path class="st10" d="M629.1-370.7c29.4,4,46.2,20.8,49.1,36.6c-3.9-9.3-13-15.2-23.6-18.6c10.6,14,7.2,31.9,21.1,41.7
						c-10.4-11-7.2-24.5-14.9-36.7c12.3,6.9,14.1,16.7,17,27.1c4.4,15.8,11.5,20.1,17.2,22.2c-11.7,0.4-28.7-4.5-36.8-20.1
						c-8.6-16.5-1.4-34.4-22.5-43.8c9.6,8.1,14.7,19.5,8.7,34.4c2.3-21.9-20.6-25.5-24.3-40.5c-0.6,11.5,7.2,21.2,14.5,25.9
						c-10.3-3.4-19.2-9-23.4-21.8c-6.9,21.4,5.3,38.5,12.9,38.5c2.6,0,4.5-1.7,4.5-4.2c0-6.4-11.6-6.4-14.6-18.9
						c5.3,10.8,25.5,8.9,25.5,20.8c0,9.7-13.6,14-22.4,8c6.4,8.3,21.3,8.6,25.6-1.4c0.7,4.3-1.3,10.8-7.5,13.1
						c-7,2.7-13.5-2.5-13.5-2.5c7.6,11,20.9,3.7,34.1,3.9c10.9,0.2,18.1,5.8,21.3,11.2c-3-1.5-4.6-1.9-7.6-2
						c6.3,3.9,10.8,12.8,9,21.5c-1.3-6.2-8.6-10.7-22.4-11.6c-15.6-1.1-23.8-3.6-29.1-9.3c11.2,5,28.9-1.9,41,6
						c-7.5-8.5-23.9-6.1-35.7-8c-20.7-3.3-33.3-38.3-31.7-53.6c-5.7,23.4,9.5,36.2,12.8,49.1c3.6,14.1-3.4,23.8-9.9,28.8
						c10.3-15.4-7.4-24.6-4.6-44.4c-5.2,19.2,4.4,24.7,4.4,34.6c0,9.8-8.6,13-10.3,25.5c-1.7-12.6-10.3-15.8-10.3-25.5
						c0-9.9,9.7-15.4,4.4-34.6c2.8,19.7-14.9,29-4.6,44.4c-6.6-5-13.6-14.7-9.9-28.8c3.3-12.9,18.4-25.7,12.8-49.1
						c1.6,15.3-11,50.3-31.7,53.6c-11.8,1.9-28.3-0.6-35.7,8c12-7.9,29.8-1.1,41-6c-5.3,5.7-13.5,8.2-29.1,9.3
						c-13.8,1-21.1,5.4-22.4,11.6c-1.8-8.7,2.8-17.6,9-21.5c-3,0.1-4.7,0.5-7.6,2c3.2-5.4,10.4-11,21.3-11.2
						c13.1-0.2,26.4,7.1,34.1-3.9c0,0-6.5,5.2-13.5,2.5c-6.1-2.4-8.1-8.8-7.5-13.1c4.3,10,19.2,9.8,25.5,1.4
						c-8.7,6.1-22.4,1.8-22.4-8c0-11.9,20.2-9.9,25.6-20.8c-3,12.4-14.6,12.4-14.6,18.9c0,2.5,1.9,4.2,4.5,4.2
						c7.6,0,19.8-17.1,12.9-38.5c-4.2,12.8-13.1,18.5-23.4,21.8c7.4-4.7,15.2-14.4,14.5-25.9c-3.7,14.9-26.6,18.5-24.3,40.5
						c-6-14.9-0.9-26.4,8.7-34.4c-21,9.4-13.9,27.3-22.5,43.8c-8.1,15.6-25.1,20.6-36.8,20.1c5.7-2.1,12.8-6.3,17.2-22.2
						c2.9-10.5,4.8-20.3,17-27.1c-7.7,12.3-4.5,25.7-14.9,36.7c13.9-9.8,10.5-27.7,21.1-41.7c-10.6,3.4-19.7,9.4-23.6,18.6
						c2.9-15.8,19.7-32.5,49.1-36.6c-30.3-1.3-36.2,15.6-51.5,16.2c-9.7,0.4-18.1-8.4-28-13.7c12.1,3.1,31.1,11.3,41.2-2.1
						c0,0-6.2,5.3-18.3,3.7c-12.3-1.6-23.5-9.4-54.1-11.4c30.7-2,41.8-9.8,54.1-11.4c12.1-1.5,18.3,3.7,18.3,3.7
						c-10.1-13.5-29.1-5.2-41.2-2.1c9.9-5.3,18.4-14.1,28-13.7c15.3,0.6,21.1,17.5,51.5,16.2c-29.4-4-46.2-20.8-49.1-36.5
						c3.9,9.2,13,15.2,23.6,18.6c-10.6-14-7.2-31.9-21.1-41.7c10.4,11,7.2,24.5,14.9,36.7c-12.3-6.9-14.1-16.7-17-27.1
						c-4.4-15.8-11.5-20.1-17.2-22.2c11.7-0.4,28.7,4.5,36.8,20.1c8.6,16.5,1.4,34.4,22.5,43.8c-9.6-8.1-14.7-19.5-8.7-34.4
						c-2.3,21.9,20.6,25.5,24.3,40.5c0.6-11.5-7.2-21.2-14.5-25.9c10.3,3.4,19.2,9,23.4,21.8c6.9-21.4-5.3-38.5-12.9-38.5
						c-2.6,0-4.5,1.7-4.5,4.2c0,6.5,11.6,6.5,14.6,18.9c-5.3-10.8-25.6-8.9-25.6-20.8c0-9.7,13.6-14,22.4-8
						c-6.4-8.3-21.3-8.6-25.5,1.4c-0.7-4.3,1.3-10.8,7.5-13.1c7-2.7,13.5,2.5,13.5,2.5c-7.6-11-20.9-3.7-34.1-3.9
						c-10.9-0.2-18.1-5.8-21.3-11.2c3,1.5,4.6,1.9,7.6,2c-6.3-3.9-10.8-12.8-9-21.5c1.3,6.2,8.6,10.7,22.4,11.6
						c15.6,1.1,23.8,3.6,29.1,9.3c-11.2-5-28.9,1.9-41-6c7.5,8.5,23.9,6.1,35.7,8c20.7,3.3,33.3,38.3,31.7,53.6
						c5.7-23.4-9.5-36.2-12.8-49.1c-3.6-14.1,3.4-23.8,9.9-28.8c-10.3,15.4,7.4,24.6,4.6,44.4c5.2-19.2-4.4-24.7-4.4-34.6
						c0-9.8,8.6-13,10.3-25.5c1.7,12.6,10.3,15.8,10.3,25.5c0,9.9-9.7,15.4-4.4,34.6c-2.8-19.7,14.9-29,4.6-44.4
						c6.6,5,13.6,14.7,9.9,28.8c-3.3,12.9-18.4,25.7-12.8,49.1c-1.6-15.3,11-50.3,31.7-53.6c11.8-1.9,28.3,0.6,35.7-8
						c-12.1,7.9-29.8,1.1-41,6c5.3-5.7,13.5-8.2,29.1-9.3c13.8-1,21.1-5.4,22.4-11.6c1.8,8.7-2.8,17.6-9,21.5c3-0.1,4.7-0.5,7.6-2
						c-3.2,5.4-10.4,11-21.3,11.2c-13.1,0.2-26.4-7.1-34.1,3.9c0,0,6.5-5.2,13.5-2.5c6.1,2.4,8.1,8.8,7.5,13.1
						c-4.3-10-19.2-9.8-25.6-1.4c8.7-6.1,22.4-1.8,22.4,8c0,11.9-20.2,9.9-25.5,20.8c3-12.4,14.6-12.4,14.6-18.9
						c0-2.5-1.9-4.2-4.5-4.2c-7.6,0-19.8,17.1-12.9,38.5c4.2-12.8,13.1-18.5,23.4-21.8c-7.4,4.7-15.2,14.4-14.5,25.9
						c3.7-14.9,26.6-18.5,24.3-40.5c6,14.9,0.9,26.4-8.7,34.4c21-9.4,13.9-27.3,22.5-43.8c8.1-15.6,25.1-20.6,36.8-20.1
						c-5.7,2.1-12.8,6.3-17.2,22.2c-2.9,10.5-4.8,20.2-17,27.1c7.7-12.3,4.5-25.7,14.9-36.7c-13.9,9.8-10.5,27.7-21.1,41.7
						c10.6-3.4,19.7-9.4,23.6-18.6c-2.9,15.8-19.7,32.5-49.1,36.5c30.3,1.3,36.2-15.6,51.5-16.2c9.7-0.4,18.1,8.4,28,13.7
						c-12.1-3.1-31.1-11.3-41.2,2.1c0,0,6.2-5.3,18.3-3.7c12.3,1.6,23.5,9.4,54.1,11.4c-30.7,2-41.8,9.8-54.1,11.4
						c-12.1,1.5-18.3-3.7-18.3-3.7c10.1,13.5,29.1,5.2,41.2,2.1c-9.9,5.3-18.4,14.1-28,13.7C665.3-355.1,659.5-372,629.1-370.7z
						 M662.5-378c4.6,1.2,8.6,3.8,14.5,3.8c7.1,0,11.1-2.8,16.7-3.8c-5.7-1-9.6-3.8-16.7-3.8C671.1-381.7,667.1-379.2,662.5-378z
						 M590.3-468.3c0,5.1,3,8.4,3,12.1c0-3.7,3-7,3-12.1c0-4.6-2.2-6.7-3-11.4C592.5-474.9,590.3-472.8,590.3-468.3z M524.1-378
						c-4.6-1.2-8.6-3.8-14.5-3.8c-7.1,0-11.1,2.8-16.7,3.8c5.7,1,9.6,3.8,16.7,3.8C515.5-374.2,519.5-376.7,524.1-378z M596.3-287.7
						c0-5.1-3-8.4-3-12.1c0,3.7-3,7-3,12.1c0,4.6,2.2,6.7,3,11.4C594.1-281,596.3-283.1,596.3-287.7z M638.4-378c-9.9,0-24.1-5-35-3
						c3.4-2.1,5-3.7,7.5-6.7c-4.4,0.4-6.8,0.8-10.1,2.3c2.7-6,3.2-9.4,3.7-15.4c-3.1,3.6-4.6,5.7-6.6,10.6
						c0.7-12.4-4.3-15.2-4.6-31.8c-0.4,16.5-5.3,19.3-4.6,31.8c-1.9-4.9-3.5-7.1-6.6-10.6c0.5,6,1.1,9.4,3.7,15.4
						c-3.4-1.5-5.7-1.9-10.1-2.3c2.5,3.1,4,4.6,7.5,6.7c-10.9-2-25,3-35,3c9.9,0,24.1,5,35,3c-3.4,2.1-5,3.7-7.5,6.7
						c4.4-0.4,6.8-0.8,10.1-2.3c-2.7,6-3.2,9.4-3.7,15.4c3.1-3.6,4.6-5.7,6.6-10.6c-0.7,12.4,4.3,15.2,4.6,31.8
						c0.4-16.5,5.3-19.3,4.6-31.8c1.9,4.9,3.5,7.1,6.6,10.6c-0.5-6-1.1-9.4-3.7-15.4c3.4,1.5,5.7,1.9,10.1,2.3
						c-2.5-3.1-4-4.6-7.5-6.7C614.3-373,628.4-378,638.4-378z"/>
					
						<linearGradient id="SVGID_9_" gradientUnits="userSpaceOnUse" x1="-38745.7773" y1="19383.7305" x2="-38769.0781" y2="19391.668" gradientTransform="matrix(1 0 0 1 39260.5586 -19731.2266)">
						<stop  offset="0.2331" style="stop-color:#FAA61A"/>
						<stop  offset="0.7607" style="stop-color:#FFC20E"/>
					</linearGradient>
					<path class="st11" d="M511.8-350.8c-4.7,4.6-6.9,12.2-7.3,21.7c-0.5,12.5-5.4,17.7-13.3,18.5c11.8-4.6,4.4-17.1,7.9-25.8
						c-6.4,4.8-4.4,20.7-17.6,21.4c9.8-3.2,2.8-16.7,9.3-24.5c-7.8,0.1-11.4-6.1-21.5-3.2c4.7-3.6,10-5.9,18.8-5.9
						c-6.3-3.9-9-8.6-11.3-15.3C486.9-353.4,501.6-349.3,511.8-350.8z"/>
					<path class="st5" d="M611.5-378c-4.3-0.7-9.4-3.2-14.1-1.2c2.3-1.8,1.1-3.5,2.5-5.2c-1.9,1.4-3.5,0.5-5,2.7
						c1.5-5.3-0.5-8.1-1.6-14.1c-1.1,6-3.2,8.8-1.6,14.1c-1.5-2.2-3.1-1.4-5-2.7c1.4,1.7,0.2,3.4,2.5,5.2c-4.7-2-9.9,0.6-14.1,1.2
						c4.3,0.7,9.4,3.2,14.1,1.2c-2.3,1.8-1.1,3.5-2.5,5.2c1.9-1.4,3.5-0.5,5-2.7c-1.5,5.3,0.5,8.1,1.6,14.1c1.1-6,3.2-8.8,1.6-14.1
						c1.5,2.2,3.1,1.4,5,2.7c-1.4-1.7-0.2-3.4-2.5-5.2C602.1-374.8,607.3-377.3,611.5-378z"/>
				</g>
				<g>
					
						<linearGradient id="SVGID_10_" gradientUnits="userSpaceOnUse" x1="86855.9844" y1="19554.5684" x2="86855.9844" y2="19582.6777" gradientTransform="matrix(-1 0 0 1 87196.9844 -19716.6875)">
						<stop  offset="0.2331" style="stop-color:#FAA61A"/>
						<stop  offset="0.7607" style="stop-color:#FFC20E"/>
					</linearGradient>
					<path class="st12" d="M315.1-127.1c2.6-13.8,25.4-16.3,30.3-34.1c3.8,19.1,21.3,19.9,21.5,33.1c-3.2-7.8-10.8-5.8-15.9-12.1
						c0.8,6.2,4.6,11.9,12.4,15.1c-7.7,1.1-15.6-1.8-19.1-9.6c-2.6,4.2-2.8,8.4-0.7,13.9c-4.7-3.6-7.5-9.3-5.7-16.6
						C330.7-130.1,320.1-134.1,315.1-127.1z"/>
					
						<linearGradient id="SVGID_11_" gradientUnits="userSpaceOnUse" x1="-38797.5586" y1="19554.5684" x2="-38797.5586" y2="19582.6777" gradientTransform="matrix(1 0 0 1 39196.5586 -19716.6875)">
						<stop  offset="0.2331" style="stop-color:#FAA61A"/>
						<stop  offset="0.7607" style="stop-color:#FFC20E"/>
					</linearGradient>
					<path class="st13" d="M424.9-127.1c-2.6-13.8-25.4-16.3-30.3-34.1c-3.8,19.1-21.3,19.9-21.5,33.1c3.2-7.8,10.8-5.8,15.9-12.1
						c-0.8,6.2-4.6,11.9-12.4,15.1c7.7,1.1,15.6-1.8,19.1-9.6c2.6,4.2,2.8,8.4,0.7,13.9c4.7-3.6,7.5-9.3,5.7-16.6
						C409.2-130.1,419.9-134.1,424.9-127.1z"/>
					
						<linearGradient id="SVGID_12_" gradientUnits="userSpaceOnUse" x1="86812.4844" y1="-70371.6484" x2="86789.1797" y2="-70363.7109" gradientTransform="matrix(-1 0 0 -1 87260.9844 -70650.4453)">
						<stop  offset="0.2331" style="stop-color:#FAA61A"/>
						<stop  offset="0.7607" style="stop-color:#FFC20E"/>
					</linearGradient>
					<path class="st14" d="M451.5-275.5c4.7-4.6,6.9-12.2,7.3-21.7c0.5-12.5,5.4-17.7,13.3-18.5c-11.8,4.6-4.4,17.1-7.9,25.8
						c6.4-4.8,4.4-20.7,17.6-21.4c-9.8,3.2-2.8,16.7-9.3,24.5c7.8-0.1,11.4,6.1,21.5,3.2c-4.7,3.6-10,5.9-18.8,5.9
						c6.3,3.9,9,8.6,11.3,15.3C476.4-272.9,461.7-277,451.5-275.5z"/>
					<path class="st1" d="M302.2-316.9c5.5,4.6,10.7,12.5,11.4,22.8c1.1-10.2,3.2-18.1,8.2-24c0,0-6.3,3.1-8.6,9.2
						C310.3-314.2,302.2-316.9,302.2-316.9z"/>
					<path class="st1" d="M288.2-367.7c1.2,6,6.3,11.2,12.9,13.7c-2.7-7-1.7-13.8,2.2-19.8c-0.9,7.8,1.5,13.2,5.8,18
						c-1.4-4.8-1.2-9.3,1.1-13.9c-0.9,8.5,6.2,12.8,15.6,18.4c12.7,7.6,17.3,16,19.2,27.2c-3.5-6.9-9.9-13.1-27.9-17.3
						C294.8-346.4,286.7-353.7,288.2-367.7z"/>
					
						<linearGradient id="SVGID_13_" gradientUnits="userSpaceOnUse" x1="-38969.1133" y1="-70371.6641" x2="-38992.4102" y2="-70363.7266" gradientTransform="matrix(1 0 0 -1 39260.5586 -70650.4453)">
						<stop  offset="0.2331" style="stop-color:#FAA61A"/>
						<stop  offset="0.7607" style="stop-color:#FFC20E"/>
					</linearGradient>
					<path class="st15" d="M288.4-275.5c-4.7-4.6-6.9-12.2-7.3-21.7c-0.5-12.5-5.4-17.7-13.3-18.5c11.8,4.6,4.4,17.1,7.9,25.8
						c-6.4-4.8-4.4-20.7-17.6-21.4c9.8,3.2,2.8,16.7,9.3,24.5c-7.8-0.1-11.4,6.1-21.5,3.2c4.7,3.6,10,5.9,18.8,5.9
						c-6.3,3.9-9,8.6-11.3,15.3C263.6-272.9,278.3-277,288.4-275.5z"/>
					<path class="st1" d="M437.8-316.9c-5.5,4.6-10.7,12.5-11.4,22.8c-1.1-10.2-3.2-18.1-8.2-24c0,0,6.3,3.1,8.6,9.2
						C429.7-314.2,437.8-316.9,437.8-316.9z"/>
					<path class="st1" d="M451.8-367.7c-1.2,6-6.3,11.2-12.9,13.7c2.7-7,1.7-13.8-2.2-19.8c0.9,7.8-1.5,13.2-5.8,18
						c1.4-4.8,1.2-9.3-1.1-13.9c0.9,8.5-6.2,12.8-15.6,18.4c-12.7,7.6-17.3,16-19.2,27.2c3.5-6.9,9.9-13.1,27.9-17.3
						C445.1-346.4,453.2-353.7,451.8-367.7z"/>
					
						<linearGradient id="SVGID_14_" gradientUnits="userSpaceOnUse" x1="-38861.5586" y1="-70315.8281" x2="-38861.5586" y2="-70287.7188" gradientTransform="matrix(1 0 0 -1 39260.5586 -70650.4453)">
						<stop  offset="0.2331" style="stop-color:#FAA61A"/>
						<stop  offset="0.7607" style="stop-color:#FFC20E"/>
					</linearGradient>
					<path class="st16" d="M424.9-369.6c-2.6,13.8-25.4,16.3-30.3,34.1c-3.8-19.1-21.3-19.9-21.5-33.1c3.2,7.8,10.8,5.8,15.9,12.1
						c-0.8-6.2-4.6-11.9-12.4-15.1c7.7-1.1,15.6,1.8,19.1,9.6c2.6-4.2,2.8-8.4,0.7-13.9c4.7,3.6,7.5,9.3,5.7,16.6
						C409.2-366.7,419.9-362.6,424.9-369.6z"/>
					<path class="st1" d="M302.2-179.9c5.5-4.6,10.7-12.5,11.4-22.8c1.1,10.2,3.2,18.1,8.2,24c0,0-6.3-3.1-8.6-9.2
						C310.3-182.6,302.2-179.9,302.2-179.9z"/>
					<path class="st1" d="M288.2-129c1.2-6,6.3-11.2,12.9-13.7c-2.7,7-1.7,13.8,2.2,19.8c-0.9-7.8,1.5-13.2,5.8-18
						c-1.4,4.8-1.2,9.3,1.1,13.9c-0.9-8.5,6.2-12.8,15.6-18.4c12.7-7.6,17.3-16,19.2-27.2c-3.5,6.9-9.9,13.1-27.9,17.3
						C294.8-150.3,286.7-143.1,288.2-129z"/>
					
						<radialGradient id="SVGID_15_" cx="-38890.8594" cy="-70402.0938" r="133.5137" gradientTransform="matrix(1 0 0 -1 39260.5586 -70650.4453)" gradientUnits="userSpaceOnUse">
						<stop  offset="0.3479" style="stop-color:#58AB40"/>
						<stop  offset="0.7607" style="stop-color:#80C342"/>
					</radialGradient>
					<path class="st17" d="M405.8-241.1c29.4,4,46.2,20.8,49.1,36.6c-3.9-9.3-13-15.2-23.6-18.6c10.6,14,7.2,31.9,21.1,41.7
						c-10.4-11-7.2-24.5-14.9-36.7c12.3,6.9,14.1,16.7,17,27.1c4.4,15.8,11.5,20.1,17.2,22.2c-11.7,0.5-28.7-4.5-36.8-20.1
						c-8.6-16.5-1.4-34.4-22.5-43.8c9.6,8.1,14.7,19.5,8.7,34.4c2.3-21.9-20.6-25.5-24.3-40.5c-0.6,11.5,7.2,21.2,14.5,25.9
						c-10.3-3.4-19.2-9-23.4-21.8c-6.9,21.4,5.3,38.5,12.9,38.5c2.6,0,4.5-1.7,4.5-4.2c0-6.4-11.6-6.4-14.6-18.9
						c5.3,10.8,25.5,8.9,25.5,20.8c0,9.7-13.6,14-22.4,8c6.4,8.3,21.3,8.6,25.6-1.4c0.7,4.3-1.3,10.8-7.5,13.1
						c-7,2.7-13.5-2.5-13.5-2.5c7.6,11,20.9,3.7,34.1,3.9c10.9,0.2,18.1,5.8,21.3,11.2c-3-1.5-4.6-1.9-7.6-2
						c6.3,3.9,10.8,12.8,9,21.5c-1.3-6.2-8.6-10.7-22.4-11.6c-15.6-1.1-23.8-3.6-29.1-9.3c11.2,5,28.9-1.9,41,6
						c-7.5-8.5-23.9-6.1-35.7-8c-20.7-3.3-33.3-38.3-31.7-53.6c-5.7,23.4,9.5,36.2,12.8,49.1c3.6,14.1-3.4,23.8-9.9,28.8
						c10.3-15.4-7.4-24.6-4.6-44.4c-5.2,19.2,4.4,24.7,4.4,34.6c0,9.8-8.6,13-10.3,25.5c-1.7-12.6-10.3-15.8-10.3-25.5
						c0-9.9,9.7-15.4,4.4-34.6c2.8,19.7-14.9,29-4.6,44.4c-6.6-5-13.6-14.7-9.9-28.8c3.3-12.9,18.4-25.7,12.8-49.1
						c1.6,15.3-11,50.3-31.7,53.6c-11.8,1.9-28.3-0.6-35.7,8c12-7.9,29.8-1.1,41-6c-5.3,5.7-13.5,8.2-29.1,9.3
						c-13.8,1-21.1,5.4-22.4,11.6c-1.8-8.7,2.8-17.6,9-21.5c-3,0.1-4.7,0.5-7.6,2c3.2-5.4,10.4-11,21.3-11.2
						c13.1-0.2,26.4,7.1,34.1-3.9c0,0-6.5,5.2-13.5,2.5c-6.1-2.4-8.1-8.8-7.5-13.1c4.3,10,19.2,9.8,25.5,1.4
						c-8.7,6.1-22.4,1.8-22.4-8c0-11.9,20.2-9.9,25.6-20.8c-3,12.4-14.6,12.4-14.6,18.9c0,2.5,1.9,4.2,4.5,4.2
						c7.6,0,19.8-17.1,12.9-38.5c-4.2,12.8-13.1,18.5-23.4,21.8c7.4-4.7,15.2-14.4,14.5-25.9c-3.7,14.9-26.6,18.5-24.3,40.5
						c-6-14.9-0.9-26.4,8.7-34.4c-21,9.4-13.9,27.3-22.5,43.8c-8.1,15.6-25.1,20.6-36.8,20.1c5.7-2.1,12.8-6.3,17.2-22.2
						c2.9-10.5,4.8-20.3,17-27.1c-7.7,12.3-4.5,25.7-14.9,36.7c13.9-9.8,10.5-27.7,21.1-41.7c-10.6,3.4-19.7,9.4-23.6,18.6
						c2.9-15.8,19.7-32.5,49.1-36.6c-30.3-1.3-36.2,15.6-51.5,16.2c-9.7,0.4-18.1-8.4-28-13.7c12.1,3.1,31.1,11.3,41.2-2.1
						c0,0-6.2,5.3-18.3,3.7c-12.3-1.6-23.5-9.4-54.1-11.4c30.7-2,41.8-9.8,54.1-11.4c12.1-1.5,18.3,3.7,18.3,3.7
						c-10.1-13.5-29.1-5.2-41.2-2.1c9.9-5.3,18.4-14.1,28-13.7c15.3,0.6,21.1,17.5,51.5,16.2c-29.4-4-46.2-20.8-49.1-36.5
						c3.9,9.2,13,15.2,23.6,18.6c-10.6-14-7.2-31.9-21.1-41.7c10.4,11,7.2,24.5,14.9,36.7c-12.3-6.9-14.1-16.7-17-27.1
						c-4.4-15.8-11.5-20.1-17.2-22.2c11.7-0.4,28.7,4.5,36.8,20.1c8.6,16.5,1.4,34.4,22.5,43.8c-9.6-8.1-14.7-19.5-8.7-34.4
						c-2.3,21.9,20.6,25.5,24.3,40.5c0.6-11.5-7.2-21.2-14.5-25.9c10.3,3.4,19.2,9,23.4,21.8c6.9-21.4-5.3-38.5-12.9-38.5
						c-2.6,0-4.5,1.7-4.5,4.2c0,6.5,11.6,6.5,14.6,18.9c-5.3-10.8-25.6-8.9-25.6-20.8c0-9.7,13.6-14,22.4-8
						c-6.4-8.3-21.3-8.6-25.5,1.4c-0.7-4.3,1.3-10.8,7.5-13.1c7-2.7,13.5,2.5,13.5,2.5c-7.6-11-20.9-3.7-34.1-3.9
						c-10.9-0.2-18.1-5.8-21.3-11.2c3,1.5,4.6,1.9,7.6,2c-6.3-3.9-10.8-12.8-9-21.5c1.3,6.2,8.6,10.7,22.4,11.6
						c15.6,1.1,23.8,3.6,29.1,9.3c-11.2-5-28.9,1.9-41-6c7.5,8.5,23.9,6.1,35.7,8c20.7,3.3,33.3,38.3,31.7,53.6
						c5.7-23.4-9.5-36.2-12.8-49.1c-3.6-14.1,3.4-23.8,9.9-28.8c-10.3,15.4,7.4,24.6,4.6,44.4c5.2-19.2-4.4-24.7-4.4-34.6
						c0-9.8,8.6-13,10.3-25.5c1.7,12.6,10.3,15.8,10.3,25.5c0,9.9-9.7,15.4-4.4,34.6c-2.8-19.7,14.9-29,4.6-44.4
						c6.6,5,13.6,14.7,9.9,28.8c-3.3,12.9-18.4,25.7-12.8,49.1c-1.6-15.3,11-50.3,31.7-53.6c11.8-1.9,28.3,0.6,35.7-8
						c-12.1,7.9-29.8,1.1-41,6c5.3-5.7,13.5-8.2,29.1-9.3c13.8-1,21.1-5.4,22.4-11.6c1.8,8.7-2.8,17.6-9,21.5c3-0.1,4.7-0.5,7.6-2
						c-3.2,5.4-10.4,11-21.3,11.2c-13.1,0.2-26.4-7.1-34.1,3.9c0,0,6.5-5.2,13.5-2.5c6.1,2.4,8.1,8.8,7.5,13.1
						c-4.3-10-19.2-9.8-25.6-1.4c8.7-6.1,22.4-1.8,22.4,8c0,11.9-20.2,9.9-25.5,20.8c3-12.4,14.6-12.4,14.6-18.9
						c0-2.5-1.9-4.2-4.5-4.2c-7.6,0-19.8,17.1-12.9,38.5c4.2-12.8,13.1-18.5,23.4-21.8c-7.4,4.7-15.2,14.4-14.5,25.9
						c3.7-14.9,26.6-18.5,24.3-40.5c6,14.9,0.9,26.4-8.7,34.4c21-9.4,13.9-27.3,22.5-43.8c8.1-15.6,25.1-20.6,36.8-20.1
						c-5.7,2.1-12.8,6.3-17.2,22.2c-2.9,10.5-4.8,20.3-17,27.1c7.7-12.3,4.5-25.7,14.9-36.7c-13.9,9.8-10.5,27.7-21.1,41.7
						c10.6-3.4,19.7-9.4,23.6-18.6c-2.9,15.8-19.7,32.5-49.1,36.5c30.3,1.3,36.2-15.6,51.5-16.2c9.7-0.4,18.1,8.4,28,13.7
						c-12.1-3.1-31.1-11.3-41.2,2.1c0,0,6.2-5.3,18.3-3.7c12.3,1.6,23.5,9.4,54.1,11.4c-30.7,2-41.8,9.8-54.1,11.4
						c-12.1,1.5-18.3-3.7-18.3-3.7c10.1,13.5,29.1,5.2,41.2,2.1c-9.9,5.3-18.4,14.1-28,13.7C442-225.5,436.1-242.4,405.8-241.1z
						 M439.2-248.4c4.6,1.2,8.6,3.8,14.5,3.8c7.1,0,11.1-2.8,16.7-3.8c-5.7-1-9.6-3.8-16.7-3.8C447.8-252.1,443.8-249.6,439.2-248.4
						z M367-338.7c0,5.1,3,8.4,3,12.1c0-3.7,3-7,3-12.1c0-4.6-2.2-6.7-3-11.4C369.2-345.3,367-343.2,367-338.7z M300.8-248.4
						c-4.6-1.2-8.6-3.8-14.5-3.8c-7.1,0-11.1,2.8-16.7,3.8c5.7,1,9.6,3.8,16.7,3.8C292.1-244.6,296.2-247.1,300.8-248.4z M373-158.1
						c0-5.1-3-8.4-3-12.1c0,3.7-3,7-3,12.1c0,4.6,2.2,6.7,3,11.4C370.7-151.4,373-153.5,373-158.1z M415-248.4c-9.9,0-24.1-5-35-3
						c3.4-2.1,5-3.7,7.5-6.7c-4.4,0.4-6.8,0.8-10.1,2.3c2.7-6,3.2-9.4,3.7-15.4c-3.1,3.6-4.6,5.7-6.6,10.6
						c0.7-12.4-4.3-15.2-4.6-31.8c-0.4,16.5-5.3,19.3-4.6,31.8c-1.9-4.9-3.5-7.1-6.6-10.6c0.5,6,1.1,9.4,3.7,15.4
						c-3.4-1.5-5.7-1.9-10.1-2.3c2.5,3.1,4,4.6,7.5,6.7c-10.9-2-25,3-35,3c9.9,0,24.1,5,35,3c-3.4,2.1-5,3.7-7.5,6.7
						c4.4-0.4,6.8-0.8,10.1-2.3c-2.7,6-3.2,9.4-3.7,15.4c3.1-3.6,4.6-5.7,6.6-10.6c-0.7,12.4,4.3,15.2,4.6,31.8
						c0.4-16.5,5.3-19.3,4.6-31.8c1.9,4.9,3.5,7.1,6.6,10.6c-0.5-6-1.1-9.4-3.7-15.4c3.4,1.5,5.7,1.9,10.1,2.3
						c-2.5-3.1-4-4.6-7.5-6.7C391-243.4,405.1-248.4,415-248.4z"/>
					<path class="st1" d="M437.8-179.9c-5.5-4.6-10.7-12.5-11.4-22.8c-1.1,10.2-3.2,18.1-8.2,24c0,0,6.3-3.1,8.6-9.2
						C429.7-182.6,437.8-179.9,437.8-179.9z"/>
					<path class="st1" d="M451.8-129c-1.2-6-6.3-11.2-12.9-13.7c2.7,7,1.7,13.8-2.2,19.8c0.9-7.8-1.5-13.2-5.8-18
						c1.4,4.8,1.2,9.3-1.1,13.9c0.9-8.5-6.2-12.8-15.6-18.4c-12.7-7.6-17.3-16-19.2-27.2c3.5,6.9,9.9,13.1,27.9,17.3
						C445.1-150.3,453.2-143.1,451.8-129z"/>
					
						<linearGradient id="SVGID_16_" gradientUnits="userSpaceOnUse" x1="86812.4922" y1="19513.3242" x2="86789.1953" y2="19521.2578" gradientTransform="matrix(-1 0 0 1 87260.9844 -19731.2266)">
						<stop  offset="0.2331" style="stop-color:#FAA61A"/>
						<stop  offset="0.7607" style="stop-color:#FFC20E"/>
					</linearGradient>
					<path class="st18" d="M451.5-221.2c4.7,4.6,6.9,12.2,7.3,21.7c0.5,12.5,5.4,17.7,13.3,18.5c-11.8-4.6-4.4-17.1-7.9-25.8
						c6.4,4.8,4.4,20.7,17.6,21.4c-9.8-3.2-2.8-16.7-9.3-24.5c7.8,0.1,11.4-6.1,21.5-3.2c-4.7-3.6-10-5.9-18.8-5.9
						c6.3-3.9,9-8.6,11.3-15.3C476.4-223.8,461.7-219.7,451.5-221.2z"/>
					
						<linearGradient id="SVGID_17_" gradientUnits="userSpaceOnUse" x1="-38969.1016" y1="19513.3086" x2="-38992.3984" y2="19521.2422" gradientTransform="matrix(1 0 0 1 39260.5586 -19731.2266)">
						<stop  offset="0.2331" style="stop-color:#FAA61A"/>
						<stop  offset="0.7607" style="stop-color:#FFC20E"/>
					</linearGradient>
					<path class="st19" d="M288.4-221.2c-4.7,4.6-6.9,12.2-7.3,21.7c-0.5,12.5-5.4,17.7-13.3,18.5c11.8-4.6,4.4-17.1,7.9-25.8
						c-6.4,4.8-4.4,20.7-17.6,21.4c9.8-3.2,2.8-16.7,9.3-24.5c-7.8,0.1-11.4-6.1-21.5-3.2c4.7-3.6,10-5.9,18.8-5.9
						c-6.3-3.9-9-8.6-11.3-15.3C263.6-223.8,278.3-219.7,288.4-221.2z"/>
					
						<linearGradient id="SVGID_18_" gradientUnits="userSpaceOnUse" x1="86919.9844" y1="-70315.8281" x2="86919.9844" y2="-70287.7188" gradientTransform="matrix(-1 0 0 -1 87260.9844 -70650.4453)">
						<stop  offset="0.2331" style="stop-color:#FAA61A"/>
						<stop  offset="0.7607" style="stop-color:#FFC20E"/>
					</linearGradient>
					<path class="st20" d="M315.1-369.6c2.6,13.8,25.4,16.3,30.3,34.1c3.8-19.1,21.3-19.9,21.5-33.1c-3.2,7.8-10.8,5.8-15.9,12.1
						c0.8-6.2,4.6-11.9,12.4-15.1c-7.7-1.1-15.6,1.8-19.1,9.6c-2.6-4.2-2.8-8.4-0.7-13.9c-4.7,3.6-7.5,9.3-5.7,16.6
						C330.7-366.7,320.1-362.6,315.1-369.6z"/>
					<path class="st5" d="M388.2-248.4c-4.3-0.7-9.4-3.2-14.1-1.2c2.3-1.8,1.1-3.5,2.5-5.2c-1.9,1.4-3.5,0.5-5,2.7
						c1.5-5.3-0.5-8.1-1.6-14.1c-1.1,6-3.2,8.8-1.6,14.1c-1.5-2.2-3.1-1.4-5-2.7c1.4,1.7,0.2,3.4,2.5,5.2c-4.7-2-9.9,0.6-14.1,1.2
						c4.3,0.7,9.4,3.2,14.1,1.2c-2.3,1.8-1.1,3.5-2.5,5.2c1.9-1.4,3.5-0.5,5-2.7c-1.5,5.3,0.5,8.1,1.6,14.1c1.1-6,3.2-8.8,1.6-14.1
						c1.5,2.2,3.1,1.4,5,2.7c-1.4-1.7-0.2-3.4-2.5-5.2C378.8-245.2,383.9-247.7,388.2-248.4z"/>
				</g>
				<g>
					
						<linearGradient id="SVGID_19_" gradientUnits="userSpaceOnUse" x1="-39020.957" y1="19424.9785" x2="-39020.957" y2="19453.084" gradientTransform="matrix(1 0 0 1 39196.5586 -19716.6875)">
						<stop  offset="0.2331" style="stop-color:#FAA61A"/>
						<stop  offset="0.7607" style="stop-color:#FFC20E"/>
					</linearGradient>
					<path class="st21" d="M201.5-256.7c-2.6-13.8-25.4-16.3-30.3-34.1c-3.8,19.1-21.3,19.9-21.5,33.1c3.2-7.8,10.8-5.8,15.9-12.1
						c-0.8,6.2-4.6,11.9-12.4,15.1c7.7,1.1,15.6-1.8,19.1-9.6c2.6,4.2,2.8,8.4,0.7,13.9c4.7-3.6,7.5-9.3,5.7-16.6
						C185.9-259.7,196.6-263.7,201.5-256.7z"/>
					
						<radialGradient id="SVGID_20_" cx="-39113.7578" cy="-70272.5" r="133.3515" gradientTransform="matrix(1 0 0 -1 39260.5586 -70650.4453)" gradientUnits="userSpaceOnUse">
						<stop  offset="0.3479" style="stop-color:#58AB40"/>
						<stop  offset="0.7607" style="stop-color:#80C342"/>
					</radialGradient>
					<path class="st22" d="M182.5-370.7c29.4,4,46.2,20.8,49.1,36.6c-3.9-9.3-13-15.2-23.6-18.6c10.6,14,7.2,31.9,21.1,41.7
						c-10.4-11-7.2-24.5-14.9-36.7c12.3,6.9,14.1,16.7,17,27.1c4.4,15.8,11.5,20.1,17.2,22.2c-11.7,0.4-28.7-4.5-36.8-20.1
						c-8.6-16.5-1.4-34.4-22.5-43.8c9.6,8.1,14.7,19.5,8.7,34.4c2.3-21.9-20.6-25.5-24.3-40.5c-0.6,11.5,7.2,21.2,14.5,25.9
						c-10.3-3.4-19.2-9-23.4-21.8c-6.9,21.4,5.3,38.5,12.9,38.5c2.6,0,4.5-1.7,4.5-4.2c0-6.4-11.6-6.4-14.6-18.9
						c5.3,10.8,25.5,8.9,25.5,20.8c0,9.7-13.6,14-22.4,8c6.4,8.3,21.3,8.6,25.6-1.4c0.7,4.3-1.3,10.8-7.5,13.1
						c-7,2.7-13.5-2.5-13.5-2.5c7.6,11,20.9,3.7,34.1,3.9c10.9,0.2,18.1,5.8,21.3,11.2c-3-1.5-4.6-1.9-7.6-2
						c6.3,3.9,10.8,12.8,9,21.5c-1.3-6.2-8.6-10.7-22.4-11.6c-15.6-1.1-23.8-3.6-29.1-9.3c11.2,5,28.9-1.9,41,6
						c-7.5-8.5-23.9-6.1-35.7-8c-20.7-3.3-33.3-38.3-31.7-53.6c-5.7,23.4,9.5,36.2,12.8,49.1c3.6,14.1-3.4,23.8-9.9,28.8
						c10.3-15.4-7.4-24.6-4.6-44.4c-5.2,19.2,4.4,24.7,4.4,34.6c0,9.8-8.6,13-10.3,25.5c-1.7-12.6-10.3-15.8-10.3-25.5
						c0-9.9,9.7-15.4,4.4-34.6c2.8,19.7-14.9,29-4.6,44.4c-6.6-5-13.6-14.7-9.9-28.8c3.3-12.9,18.4-25.7,12.8-49.1
						c1.6,15.3-11,50.3-31.7,53.6c-11.8,1.9-28.3-0.6-35.7,8c12-7.9,29.8-1.1,41-6c-5.3,5.7-13.5,8.2-29.1,9.3
						c-13.8,1-21.1,5.4-22.4,11.6c-1.8-8.7,2.8-17.6,9-21.5c-3,0.1-4.7,0.5-7.6,2c3.2-5.4,10.4-11,21.3-11.2
						c13.1-0.2,26.4,7.1,34.1-3.9c0,0-6.5,5.2-13.5,2.5c-6.1-2.4-8.1-8.8-7.5-13.1c4.3,10,19.2,9.8,25.5,1.4
						c-8.7,6.1-22.4,1.8-22.4-8c0-11.9,20.2-9.9,25.6-20.8c-3,12.4-14.6,12.4-14.6,18.9c0,2.5,1.9,4.2,4.5,4.2
						c7.6,0,19.8-17.1,12.9-38.5c-4.2,12.8-13.1,18.5-23.4,21.8c7.4-4.7,15.2-14.4,14.5-25.9c-3.3,15-26.2,18.5-23.9,40.5
						c-6-14.9-0.9-26.4,8.7-34.4c-21,9.4-13.9,27.3-22.5,43.8c-8.1,15.6-25.1,20.6-36.8,20.1c5.7-2.1,12.8-6.3,17.2-22.2
						c2.9-10.5,4.8-20.3,17-27.1c-7.7,12.3-4.5,25.7-14.9,36.7c13.9-9.8,10.5-27.7,21.1-41.7c-10.6,3.4-19.7,9.4-23.6,18.6
						c2.9-15.8,19.7-32.5,49.1-36.6c-30.3-1.3-36.2,15.6-51.5,16.2c-9.7,0.4-18.1-8.4-28-13.7c12.1,3.1,31.1,11.3,41.2-2.1
						c0,0-6.2,5.3-18.3,3.7C41.8-368.2,30.6-376,0-378c30.7-2,41.8-9.8,54.1-11.4c12.1-1.5,18.3,3.7,18.3,3.7
						c-10.1-13.5-29.1-5.2-41.2-2.1c9.9-5.3,18.4-14.1,28-13.7c15.3,0.6,21.1,17.5,51.5,16.2c-29.4-4-46.2-20.8-49.1-36.5
						c3.9,9.2,13,15.2,23.6,18.6c-10.6-14-7.2-31.9-21.1-41.7c10.4,11,7.2,24.5,14.9,36.7c-12.3-6.9-14.1-16.7-17-27.1
						c-4.4-15.8-11.5-20.1-17.2-22.2c11.7-0.4,28.7,4.5,36.8,20.1c8.6,16.5,1.4,34.4,22.5,43.8c-9.6-8.1-14.7-19.5-8.7-34.4
						c-2.3,21.9,20.6,25.5,24.3,40.5c0.6-11.5-7.2-21.2-14.5-25.9c10.3,3.4,19.2,9,23.4,21.8c6.9-21.4-5.3-38.5-12.9-38.5
						c-2.6,0-4.5,1.7-4.5,4.2c0,6.5,11.6,6.5,14.6,18.9c-5.3-10.8-25.6-8.9-25.6-20.8c0-9.7,13.6-14,22.4-8
						c-6.4-8.3-21.3-8.6-25.5,1.4c-0.7-4.3,1.3-10.8,7.5-13.1c7-2.7,13.5,2.5,13.5,2.5c-7.6-11-20.9-3.7-34.1-3.9
						c-10.9-0.2-18.1-5.8-21.3-11.2c3,1.5,4.6,1.9,7.6,2c-6.3-3.9-10.8-12.8-9-21.5c1.3,6.2,8.6,10.7,22.4,11.6
						c15.6,1.1,23.8,3.6,29.1,9.3c-11.2-5-28.9,1.9-41-6c7.5,8.5,23.9,6.1,35.7,8c20.7,3.3,33.3,38.3,31.7,53.6
						c5.7-23.4-9.5-36.2-12.8-49.1c-3.6-14.1,3.4-23.8,9.9-28.8c-10.3,15.4,7.4,24.6,4.6,44.4c5.2-19.2-4.4-24.7-4.4-34.6
						c0-9.8,8.6-13,10.3-25.5c1.7,12.6,10.3,15.8,10.3,25.5c0,9.9-9.7,15.4-4.4,34.6c-2.8-19.7,14.9-29,4.6-44.4
						c6.6,5,13.6,14.7,9.9,28.8c-3.3,12.9-18.4,25.7-12.8,49.1c-1.6-15.3,11-50.3,31.7-53.6c11.8-1.9,28.3,0.6,35.7-8
						c-12.1,7.9-29.8,1.1-41,6c5.3-5.7,13.5-8.2,29.1-9.3c13.8-1,21.1-5.4,22.4-11.6c1.8,8.7-2.8,17.6-9,21.5c3-0.1,4.7-0.5,7.6-2
						c-3.2,5.4-10.4,11-21.3,11.2c-13.1,0.2-26.4-7.1-34.1,3.9c0,0,6.5-5.2,13.5-2.5c6.1,2.4,8.1,8.8,7.5,13.1
						c-4.3-10-19.2-9.8-25.6-1.4c8.7-6.1,22.4-1.8,22.4,8c0,11.9-20.2,9.9-25.5,20.8c3-12.4,14.6-12.4,14.6-18.9
						c0-2.5-1.9-4.2-4.5-4.2c-7.6,0-19.8,17.1-12.9,38.5c4.2-12.8,13.1-18.5,23.4-21.8c-7.4,4.7-15.2,14.4-14.5,25.9
						c3.7-14.9,26.6-18.5,24.3-40.5c6,14.9,0.9,26.4-8.7,34.4c21-9.4,13.9-27.3,22.5-43.8c8.1-15.6,25.1-20.6,36.8-20.1
						c-5.7,2.1-12.8,6.3-17.2,22.2c-2.9,10.5-4.8,20.2-17,27.1c7.7-12.3,4.5-25.7,14.9-36.7c-13.9,9.8-10.5,27.7-21.1,41.7
						c10.6-3.4,19.7-9.4,23.6-18.6c-2.9,15.8-19.7,32.5-49.1,36.5c30.3,1.3,36.2-15.6,51.5-16.2c9.7-0.4,18.1,8.4,28,13.7
						c-12.1-3.1-31.1-11.3-41.2,2.1c0,0,6.2-5.3,18.3-3.7c12.3,1.6,23.5,9.4,54.1,11.4c-30.7,2-41.8,9.8-54.1,11.4
						c-12.1,1.5-18.3-3.7-18.3-3.7c10.1,13.5,29.1,5.2,41.2,2.1c-9.9,5.3-18.4,14.1-28,13.7C218.7-355.1,212.8-372,182.5-370.7z
						 M215.9-378c4.6,1.2,8.6,3.8,14.5,3.8c7.1,0,11.1-2.8,16.7-3.8c-5.7-1-9.6-3.8-16.7-3.8C224.5-381.7,220.5-379.2,215.9-378z
						 M143.6-468.3c0,5.1,3,8.4,3,12.1c0-3.7,3-7,3-12.1c0-4.6-2.2-6.7-3-11.4C145.9-474.9,143.6-472.8,143.6-468.3z M77.5-378
						c-4.6-1.2-8.6-3.8-14.5-3.8c-7.1,0-11.1,2.8-16.7,3.8c5.7,1,9.6,3.8,16.7,3.8C68.8-374.2,72.8-376.7,77.5-378z M149.7-287.7
						c0-5.1-3-8.4-3-12.1c0,3.7-3,7-3,12.1c0,4.6,2.2,6.7,3,11.4C147.4-281,149.7-283.1,149.7-287.7z M191.7-378c-9.9,0-24.1-5-35-3
						c3.4-2.1,5-3.7,7.5-6.7c-4.4,0.4-6.8,0.8-10.1,2.3c2.7-6,3.2-9.4,3.7-15.4c-3.1,3.6-4.6,5.7-6.6,10.6
						c0.7-12.4-4.3-15.2-4.6-31.8c-0.4,16.5-5.3,19.3-4.6,31.8c-1.9-4.9-3.5-7.1-6.6-10.6c0.5,6,1.1,9.4,3.7,15.4
						c-3.4-1.5-5.7-1.9-10.1-2.3c2.5,3.1,4,4.6,7.5,6.7c-10.9-2-25,3-35,3c9.9,0,24.1,5,35,3c-3.4,2.1-5,3.7-7.5,6.7
						c4.4-0.4,6.8-0.8,10.1-2.3c-2.7,6-3.2,9.4-3.7,15.4c3.1-3.6,4.6-5.7,6.6-10.6c-0.7,12.4,4.3,15.2,4.6,31.8
						c0.4-16.5,5.3-19.3,4.6-31.8c1.9,4.9,3.5,7.1,6.6,10.6c-0.5-6-1.1-9.4-3.7-15.4c3.4,1.5,5.7,1.9,10.1,2.3
						c-2.5-3.1-4-4.6-7.5-6.7C167.6-373,181.8-378,191.7-378z"/>
					<path class="st1" d="M214.5-309.5c-5.5-4.6-10.7-12.5-11.4-22.8c-1.1,10.2-3.2,18.1-8.2,24c0,0,6.3-3.1,8.6-9.2
						C206.4-312.2,214.5-309.5,214.5-309.5z"/>
					<path class="st1" d="M228.5-258.6c-1.2-6-6.3-11.2-12.9-13.7c2.7,7,1.7,13.8-2.2,19.8c0.9-7.8-1.5-13.2-5.8-18
						c1.4,4.8,1.2,9.3-1.1,13.9c0.9-8.5-6.2-12.8-15.6-18.4c-12.7-7.6-17.3-16-19.2-27.2c3.5,6.9,9.9,13.1,27.9,17.3
						C221.8-279.9,229.9-272.7,228.5-258.6z"/>
					
						<linearGradient id="SVGID_21_" gradientUnits="userSpaceOnUse" x1="87035.8047" y1="19383.7148" x2="87012.5078" y2="19391.6523" gradientTransform="matrix(-1 0 0 1 87260.9844 -19731.2266)">
						<stop  offset="0.2331" style="stop-color:#FAA61A"/>
						<stop  offset="0.7607" style="stop-color:#FFC20E"/>
					</linearGradient>
					<path class="st23" d="M228.2-350.8c4.7,4.6,6.9,12.2,7.3,21.7c0.5,12.5,5.4,17.7,13.3,18.5c-11.8-4.6-4.4-17.1-7.9-25.8
						c6.4,4.8,4.4,20.7,17.6,21.4c-9.8-3.2-2.8-16.7-9.3-24.5c7.8,0.1,11.4-6.1,21.5-3.2c-4.7-3.6-10-5.9-18.8-5.9
						c6.3-3.9,9-8.6,11.3-15.3C253.1-353.4,238.3-349.3,228.2-350.8z"/>
					<path class="st5" d="M164.9-378c-4.3-0.7-9.4-3.2-14.1-1.2c2.3-1.8,1.1-3.5,2.5-5.2c-1.9,1.4-3.5,0.5-5,2.7
						c1.5-5.3-0.5-8.1-1.6-14.1c-1.1,6-3.2,8.8-1.6,14.1c-1.5-2.2-3.1-1.4-5-2.7c1.4,1.7,0.2,3.4,2.5,5.2c-4.7-2-9.9,0.6-14.1,1.2
						c4.3,0.7,9.4,3.2,14.1,1.2c-2.3,1.8-1.1,3.5-2.5,5.2c1.9-1.4,3.5-0.5,5-2.7c-1.5,5.3,0.5,8.1,1.6,14.1c1.1-6,3.2-8.8,1.6-14.1
						c1.5,2.2,3.1,1.4,5,2.7c-1.4-1.7-0.2-3.4-2.5-5.2C155.5-374.8,160.6-377.3,164.9-378z"/>
				</g>
			</g>
		</g>
	</g>
</pattern>
<g id="star">
	<pattern  id="XMLID_4_" xlink:href="#XMLID_2_" patternTransform="matrix(1 0 0 -1 -146.7 -17864.7305)">
	</pattern>
	<polygon id="XMLID_10_" class="st24" points="573.5,270.1 640.1,461.9 843.1,466 681.3,588.6 740.1,782.9 573.5,667 406.9,782.9 
		465.7,588.6 303.9,466 506.8,461.9 	"/>
	<pattern  id="XMLID_5_" xlink:href="#XMLID_2_" patternTransform="matrix(1 0 0 -1 -146.7 -17864.7305)">
	</pattern>
	<polygon id="XMLID_9_" class="st25" points="573.5,270.1 640.1,461.9 843.1,466 681.3,588.6 740.1,782.9 573.5,667 406.9,782.9 
		465.7,588.6 303.9,466 506.8,461.9 	"/>
</g>
<polygon id="littlestar" class="st26" points="773.5,333 760.1,369 782.2,400.4 743.8,398.8 720.7,429.5 710.4,392.5 674.1,380 
	706.1,358.8 706.7,320.4 736.8,344.2 "/>
<linearGradient id="draggable_1_" gradientUnits="userSpaceOnUse" x1="229.6504" y1="278.8644" x2="378.1496" y2="278.8644">
	<stop  offset="0" style="stop-color:#FFFFFF"/>
	<stop  offset="1" style="stop-color:#000000"/>
</linearGradient>
<polygon id="draggable" class="st27" points="266.8,343.2 229.7,278.9 266.8,214.6 341,214.6 378.1,278.9 341,343.2 "/>
</svg>
